<?xml version="1.0" standalone="no"?>
<!DOCTYPE svg PUBLIC "-//W3C//DTD SVG 1.1//EN" "http://www.w3.org/Graphics/SVG/1.1/DTD/svg11.dtd" >
<!--
2013-9-30: Created.
-->
<svg>
<metadata>
Created by iconfont
</metadata>
<defs>

<font id="iconfont" horiz-adv-x="1024" >
  <font-face
    font-family="iconfont"
    font-weight="500"
    font-stretch="normal"
    units-per-em="1024"
    ascent="896"
    descent="-128"
  />
    <missing-glyph />
    
    <glyph glyph-name="gonggao2" unicode="&#59098;" d="M182.857143 491.885714c-60.500114 0-109.714286-49.214171-109.714286-109.714286s49.214171-109.714286 109.714286-109.714286 109.714286 49.214171 109.714286 109.714286S243.357257 491.885714 182.857143 491.885714zM182.857143 345.6c-20.178286 0-36.571429 16.393143-36.571429 36.571429s16.393143 36.571429 36.571429 36.571429 36.571429-16.393143 36.571429-36.571429S203.035429 345.6 182.857143 345.6zM420.750629 667.170743c-17.464686 10.249143-39.857371 4.143543-49.963886-13.321143-10.143086-17.464686-4.143543-39.857371 13.321143-49.963886C462.999771 558.208 512 473.243429 512 382.171429c0-91.106743-49.000229-176.036571-127.928686-221.714286-17.464686-10.106514-23.464229-32.464457-13.321143-49.963886 6.785829-11.713829 19.035429-18.249143 31.678171-18.249143 6.213486 0 12.500114 1.570743 18.285714 4.928C522.143086 155.849143 585.142857 265.064229 585.142857 382.171429S522.143086 608.493714 420.750629 667.170743zM644.214857 867.777829c-15.786057 12.679314-38.785829 10.071771-51.392-5.677714-12.642743-15.786057-10.071771-38.785829 5.677714-51.392C729.464686 705.885257 804.571429 549.672229 804.571429 382.171429c0-167.572114-75.143314-323.821714-206.213486-428.642743-15.749486-12.642743-18.322286-35.642514-5.714286-51.428571 7.250286-9.000229 17.857829-13.714286 28.608-13.714286 8 0 16.071314 2.607543 22.820571 8C792.535771 15.171657 877.714286 192.2432 877.714286 382.171429 877.714286 572.028343 792.607086 749.028571 644.214857 867.777829z"  horiz-adv-x="1024" />

    
    <glyph glyph-name="bianji" unicode="&#58905;" d="M255.091304 768.92072l376.715851 0c-8.953929-10.316973-16.863063-21.427008-23.7581-33.429367L273.764596 735.491353c-96.176456 0-174.86768-79.660294-174.86768-177.074951l0-366.55135c0-97.515964 78.691223-177.173189 174.86768-177.173189l349.7108 0c96.226598 0 174.917822 79.657224 174.917822 177.173189L798.393217 414.078039c12.721743 0.298805 25.195845 1.784646 37.300534 4.26514l0-243.442498c0-106.539478-87.050612-193.640232-193.543018-193.640232L255.091304-18.739551c-106.444311 0-193.5686 87.100754-193.5686 193.640232L61.522704 575.379749C61.523727 681.921273 148.648017 768.92072 255.091304 768.92072L255.091304 768.92072zM365.22668 451.77357 258.412956 231.845625l229.750661 54.06536L365.22668 451.77357 365.22668 451.77357zM939.358763 747.296213c-31.027667 42.160215-85.266989 56.542784-157.184949 12.994965l123.109876-167.054737C968.275349 648.98821 970.533786 704.936453 939.358763 747.296213L939.358763 747.296213 939.358763 747.296213zM867.264794 563.87267 742.839971 732.614839 383.433344 467.647095 507.830539 298.805666 867.264794 563.87267z"  horiz-adv-x="1024" />

    
    <glyph glyph-name="shujupeizhi" unicode="&#58889;" d="M640.184 831.883h-576.604v-575.582h64.978v511.628h511.626zM446.508 63.929h-191.068v577.117h576.094v-192.407h63.852l-0.409 255.337h-703.491v-702.979h255.022zM875.737 292.901h-42.187c-3.975 8.569-9.615 26.392-16.829 39.093l29.796 28.954c9.408 9.409 9.416 24.208 0.016 33.599l-34.010 33.805c-9.392 9.393-24.62 9.291-34.028-0.112l-28.134-29.838c-12.682 7.206-30.505 12.802-39.074 16.777v42.18c0 13.299-14.087 24.061-27.361 24.061h-48.099c-13.281 0-27.369-10.762-27.369-24.061v-42.188c-8.569-3.975-26.383-9.614-39.082-16.821l-28.965 29.796c-9.407 9.408-24.216 9.408-33.6 0.017l-33.805-34.021c-9.384-9.383-9.297-24.611 0.113-34.029l29.846-28.131c-7.216-12.698-12.802-30.515-16.779-39.084h-42.177c-13.308 0-24.070-14.087-24.070-27.36v-48.098c0-13.274 10.762-27.371 24.070-27.371h42.186c3.976-8.569 9.624-26.383 16.821-39.082l-29.794-28.973c-9.409-9.407-9.409-24.198-0.017-33.589l34.011-33.815c9.382-9.381 24.618-9.287 34.028 0.122l28.132 29.846c12.699-7.208 30.513-12.804 39.082-16.778v-42.187c0-13.299 14.088-24.063 27.361-24.063h48.099c13.272 0 27.369 10.764 27.369 24.072v42.186c8.569 3.977 26.383 9.621 39.091 16.828l28.965-29.795c9.408-9.408 24.199-9.408 33.59-0.016l33.814 34.010c9.384 9.391 9.288 24.621-0.121 34.027l-29.847 28.134c7.207 12.7 12.804 30.505 16.778 39.074h42.188c13.298 0 24.062 14.090 24.062 27.363v48.098c-0 13.284-10.763 27.369-24.070 27.369zM659.872 133.285c-59.769 0-108.221 48.449-108.221 108.212 0 59.77 48.452 108.219 108.221 108.219 59.778 0 108.22-48.448 108.22-108.219 0-59.762-48.441-108.212-108.22-108.212z"  horiz-adv-x="1024" />

    
    <glyph glyph-name="key" unicode="&#58963;" d="M955.943231 129.566576l0.693988 0.693988-337.268059 337.911019c12.251953 33.893159 18.952001 70.455111 18.952001 108.583639 0 176.135226-142.512518 318.928401-318.305852 318.928401C144.216871 895.683623 1.714559 752.895551 1.714559 576.755222c0-176.135226 142.502312-318.928401 318.300749-318.928401 37.261043 0 65.342051 6.475522 98.571839 18.263116L496.691437 191.39276 496.691437 48.926168l140.302982 0L624.262797 65.148142 624.262797-73.542338l141.384787 0 13.813427 20.064424 111.522883-74.522086c0 0 79.579015-0.438845 131.301547 139.093605C1022.285441 55.406793 994.265667 101.250837 955.943231 129.566576zM192.693988 576.755222c0 70.450008 57.003987 127.57136 127.32132 127.57136 70.322437 0 127.331526-57.121352 127.331526-127.57136 0-70.455111-57.009089-127.57136-127.331526-127.57136C249.692872 449.183862 192.693988 506.300112 192.693988 576.755222z"  horiz-adv-x="1024" />

    
    <glyph glyph-name="wendangdocument69" unicode="&#59181;" d="M665.1904 782.06976 264.48896 782.06976c-26.90048 0-48.81408-21.92384-48.81408-48.82432l0-698.50112c0-26.9312 21.9136-48.82432 48.81408-48.82432l490.82368 0c26.9312 0 48.82432 21.89312 48.82432 48.82432L804.13696 631.10144 665.1904 782.06976zM676.7104 709.00736l60.90752-66.18112-60.90752 0L676.7104 709.00736zM763.136 34.75456c0-4.31104-3.52256-7.8336-7.8336-7.8336L264.48896 26.92096c-4.31104 0-7.81312 3.52256-7.81312 7.8336L256.67584 733.24544c0 4.31104 3.50208 7.80288 7.81312 7.80288L635.6992 741.04832l0-118.7328c0-11.30496 9.20576-20.46976 20.51072-20.46976l106.92608 0L763.136 34.75456zM300.62592 173.23008l399.36 0 0-81.92-399.36 0L300.62592 173.23008z"  horiz-adv-x="1024" />

    
    <glyph glyph-name="jihuarenwu" unicode="&#59008;" d="M665.6 768 627.2 896 332.8 896 294.4 768 0 768l0-896 960 0L960 768 665.6 768zM896-64 64-64 64 704l211.2 0L256 640l448 0-19.2 64L896 704 896-64zM480 576C320 576 192 448 192 288S320 0 480 0 768 128 768 288 640 576 480 576zM480 64C358.4 64 256 166.4 256 288S358.4 512 480 512 704 409.6 704 288 601.6 64 480 64zM512 448 448 448 448 256 640 256 640 320 512 320Z"  horiz-adv-x="1024" />

    
    <glyph glyph-name="bianji1" unicode="&#58892;" d="M768 320l0-256L256 64 256 704l256 0c35.328 0 64 28.672 64 64l0 0c0 35.328-28.672 64-64 64L256 832C185.28 832 128 774.72 128 704l0-640c0-70.72 57.28-128 128-128l512 0c70.72 0 128 57.28 128 128L896 320c0 35.328-28.672 64-64 64l0 0C796.672 384 768 355.328 768 320zM914.752 696.256 507.456 288.96c-25.024-25.024-65.536-25.024-90.496 0l0 0c-25.024 25.024-25.024 65.536 0 90.496l407.296 407.296c25.024 25.024 65.536 25.024 90.496 0l0 0C939.712 761.728 939.712 721.216 914.752 696.256z"  horiz-adv-x="1024" />

    
    <glyph glyph-name="jifen" unicode="&#58936;" d="M552.917 117.674c-0.299 0-0.598 0-0.896 0-62.336 2.518-122.026 9.941-172.586 21.504-11.478 2.646-18.688 14.038-16.043 25.558 2.646 11.521 14.123 18.73 25.558 16.043 48.042-10.966 105.045-18.048 164.821-20.438 11.775-0.512 20.906-10.41 20.437-22.187C573.739 126.677 564.309 117.674 552.917 117.674zM663.424 105.13c-11.265 0-20.608 8.747-21.291 20.097-0.726 11.733 8.277 21.888 20.054 22.527 180.309 10.582 276.352 60.117 276.352 91.776 0 11.776 9.558 21.333 21.333 21.333 11.776 0 21.334-9.557 21.334-21.333 0-79.957-158.977-125.142-316.502-134.357C664.235 105.13 663.851 105.13 663.424 105.13zM596.523 204.202c-46.635 0-92.374 2.73-135.979 8.192-11.69 1.45-19.968 12.117-18.517 23.808 1.45 11.69 12.032 20.139 23.808 18.56 93.611-11.647 199.382-10.239 288.256 3.713 11.563 1.535 22.528-6.145 24.363-17.793 1.834-11.604-6.187-22.527-17.792-24.362C709.418 208.298 654.165 204.202 596.523 204.202zM851.669 237.312c-9.088 0-17.493 5.846-20.395 14.976-3.499 11.265 2.73 23.211 13.994 26.752 68.779 21.505 93.228 46.635 93.228 61.611 0 36.31-128.513 91.093-329.856 94.293-11.776 0.171-21.163 9.898-20.992 21.675 0.214 11.776 10.069 21.846 21.675 20.992 184.789-2.944 371.883-50.944 371.883-136.96 0-29.142-21.376-70.528-123.137-102.357C855.936 237.568 853.76 237.312 851.669 237.312zM176.555 1.493c-14.336-0.043-27.35 3.968-38.145 13.354-8.917 7.723-9.855 21.205-2.176 30.08 7.723 8.917 21.205 9.855 30.08 2.176 11.733-10.112 62.421 2.518 148.863 79.062 50.476 44.416 103.467 101.888 153.345 166.229C612.608 478.72 663.637 632.832 635.477 657.11c-8.917 7.68-9.941 21.162-2.261 30.08 7.723 8.874 21.12 9.941 30.08 2.261 65.493-56.362-31.445-255.53-161.067-423.168-51.498-66.475-106.41-125.952-158.805-172.074C300.33 55.979 229.504 1.493 176.555 1.493zM103.082 65.407c-19.114 0-31.573 7.04-38.954 13.354C-1.451 135.21 95.531 334.25 225.195 501.717 342.059 652.629 469.29 758.869 541.781 766.122c23.808 2.433 38.783-5.76 47.189-12.971 31.146-26.666 28.586-84.267-7.894-171.221-4.522-10.88-16.938-16-27.904-11.435-10.837 4.522-16 17.023-11.435 27.903 33.92 80.939 27.52 115.414 19.413 122.368-3.072 2.688-8.149 3.584-15.189 2.901-51.157-5.12-166.187-91.989-287.104-248.064C114.731 289.493 63.701 135.381 91.862 111.104c3.029-2.603 8.149-3.584 15.231-2.816 51.243 5.163 166.272 92.032 286.977 248.064 32 41.302 61.099 83.285 86.442 124.758 6.144 10.111 19.285 13.227 29.312 7.125 10.069-6.145 13.27-19.285 7.126-29.313-26.155-42.88-56.149-86.187-89.131-128.683-116.65-150.784-243.797-257.066-316.416-264.405C108.544 65.535 105.771 65.407 103.082 65.407zM156.885 6.528c-4.906 0-9.813 1.664-13.866 5.12l-76.373 65.194c-8.96 7.638-10.027 21.078-2.39 30.038 7.723 9.002 21.162 10.026 30.08 2.389l76.373-65.194c8.96-7.638 10.026-21.077 2.39-30.037C168.874 9.088 162.902 6.528 156.885 6.528zM655.104 648.832c-4.906 0-9.856 1.706-13.866 5.12l-76.16 65.237c-8.96 7.68-9.984 21.162-2.347 30.08 7.723 8.96 21.205 9.94 30.08 2.346l76.16-65.237c8.96-7.68 9.983-21.162 2.346-30.079C667.093 651.349 661.077 648.832 655.104 648.832zM959.573 99.199c-11.775 0-21.333 9.558-21.333 21.334l-0.171 213.504c0 11.775 9.558 21.333 21.334 21.333l0 0c11.775 0 21.333-9.558 21.333-21.333l0.171-213.504C980.906 108.8 971.392 99.199 959.573 99.199L959.573 99.199zM596.694 1.407c-121.174 0-235.648 18.944-306.262 50.688-10.752 4.821-15.53 17.45-10.709 28.202s17.365 15.659 28.202 10.71c65.365-29.354 173.354-46.934 288.769-46.934 208.768 0 341.973 55.51 341.973 93.696 0 11.775 9.558 21.333 21.334 21.333 11.775 0 21.333-9.558 21.333-21.333C981.333 48.256 787.84 1.407 596.694 1.407z"  horiz-adv-x="1024" />

    
    <glyph glyph-name="iconfontxiugaimima" unicode="&#58964;" d="M802.655 465.996h-548.466c-43.222 0-78.588-35.365-78.588-78.588v-352.106c0-43.222 35.365-78.588 78.588-78.588h548.466c43.222 0 78.588 35.365 78.588 78.588v352.107c0 43.222-35.365 78.587-78.588 78.587zM615.932 47.001h-175.007l46.784 126.937c-37.74 15.903-64.267 53.231-64.267 96.775 0 57.989 47.014 104.99 104.99 104.99 57.971 0 104.987-46.997 104.987-104.99 0-43.543-26.522-80.871-64.267-96.775l46.779-126.937zM804.324 358.048h-110.023v227.025c0 91.481-74.414 165.891-165.891 165.891-91.481 0-165.891-74.414-165.891-165.891v-227.025h-110.025v227.025c0 152.138 123.773 275.913 275.913 275.913s275.913-123.773 275.913-275.913v-227.025z"  horiz-adv-x="1024" />

    
    <glyph glyph-name="anquanceshi" unicode="&#58931;" d="M825.6 785.6c-1.6 4.8-4.8 9.6-9.6 11.2-4.8 1.6-9.6 1.6-14.4 0-1.6 0-137.6-67.2-288-67.2-150.4 0-286.4 67.2-288 67.2-4.8 1.6-9.6 3.2-14.4 0-4.8-1.6-8-6.4-9.6-11.2 0-3.2-70.4-214.4-70.4-422.4 0-220.8 364.8-328 380.8-331.2 1.6 0 1.6 0 3.2 0s1.6 0 3.2 0c16 3.2 380.8 110.4 380.8 331.2C896 572.8 827.2 784 825.6 785.6zM513.6 67.2c-35.2 8-348.8 113.6-348.8 296 0 169.6 48 331.2 64 393.6 44.8-19.2 158.4-62.4 284.8-62.4 126.4 0 240 43.2 284.8 62.4 16-62.4 64-224 64-393.6C860.8 180.8 548.8 75.2 513.6 67.2zM630.4 451.2l-102.4 0 0 100.8c0 9.6-6.4 16-16 16-9.6 0-16-6.4-16-16l0-100.8-100.8 0c-9.6 0-16-6.4-16-16s6.4-16 16-16l100.8 0 0-102.4c0-9.6 6.4-16 16-16 9.6 0 16 6.4 16 16l0 102.4 102.4 0c9.6 0 16 6.4 16 16S640 451.2 630.4 451.2z"  horiz-adv-x="1024" />

    
    <glyph glyph-name="xinxiaoxi" unicode="&#58910;" d="M860.106752 207.950848c-54.514688 46.606336-93.495296 170.466304-93.495296 315.92448 0 110.118912-71.580672 203.469824-171.152384 237.652992-6.71232 39.728128-41.382912 70.075392-83.462144 70.075392-42.074112 0-76.749824-30.348288-83.457024-70.075392-99.571712-34.183168-171.157504-127.53408-171.157504-237.652992 0-145.430528-38.95296-269.267968-93.484032-315.913216-30.452736-26.042368-47.962112-63.878144-47.962112-103.71072 0-46.352384 37.984256-83.92704 84.868096-83.92704l226.325504 0c0-46.34624 37.984256-83.92704 84.868096-83.92704 46.88896 0 84.878336 37.5808 84.878336 83.92704l226.31936 0c46.877696 0 84.868096 37.574656 84.868096 83.92704C908.06272 144.06144 890.570752 181.907456 860.106752 207.950848zM200.804352 104.251392c0 15.444992 6.801408 30.132224 18.593792 40.237056 75.78112 64.790528 122.863616 210.171904 122.863616 379.38688 0 92.560384 76.135424 167.85408 169.735168 167.85408 93.605888 0 169.741312-75.293696 169.741312-167.85408 0-169.22624 47.082496-314.607616 122.857472-379.414528 11.826176-10.104832 18.599936-24.764416 18.599936-40.209408L200.804352 104.251392z"  horiz-adv-x="1024" />

    
    <glyph glyph-name="jihuarenwu1" unicode="&#59407;" d="M409.6 588.8l307.2 0 0-51.2-307.2 0 0 51.2ZM409.6 384l153.6 0 0-51.2-153.6 0 0 51.2ZM409.6 179.2l51.2 0 0-51.2-51.2 0 0 51.2ZM614.4 793.6 512 793.6 512 844.8 409.6 844.8 409.6 793.6 307.2 793.6 307.2 691.2 614.4 691.2ZM240.64 552.96 276.48 517.12 312.32 552.96 312.32 552.96 384 624.64 348.16 660.48 276.48 588.8 240.64 624.64 204.8 588.8ZM276.48 384 240.64 419.84 204.8 384 240.64 348.16 240.64 348.16 276.48 312.32 312.32 348.16 312.32 348.16 384 419.84 348.16 455.68ZM348.16 250.88 276.48 179.2 240.64 215.04 204.8 179.2 240.64 143.36 240.64 143.36 276.48 107.52 312.32 143.36 312.32 143.36 384 215.04ZM742.4 337.92c97.28 0 179.2-81.92 179.2-179.2s-81.92-179.2-179.2-179.2S563.2 61.44 563.2 158.72 645.12 337.92 742.4 337.92L742.4 337.92zM742.4 389.12c-128 0-230.4-102.4-230.4-230.4s102.4-230.4 230.4-230.4 230.4 102.4 230.4 230.4S870.4 389.12 742.4 389.12L742.4 389.12 742.4 389.12zM768 184.32 768 286.72 716.8 286.72 716.8 184.32 716.8 133.12 768 133.12 870.4 133.12 870.4 184.32ZM768 435.2 819.2 435.2 819.2 793.6 665.6 793.6 665.6 742.4 768 742.4ZM460.8 25.6 153.6 25.6 153.6 742.4 256 742.4 256 793.6 102.4 793.6 102.4-25.6 460.8-25.6Z"  horiz-adv-x="1024" />

    
    <glyph glyph-name="qingchu2" unicode="&#58965;" d="M430.08 379.328l97.984 98.912L159.136 434.592c-17.696-2.08-28.896-13.44-30.976-31.296-2.08-17.856 5.6-36.928 21.216-52.672L506.88-10.208c15.616-15.744 34.496-23.52 52.192-21.44s28.896 13.44 31.008 31.296l41.312 355.872-88.864-89.696L430.08 379.328zM921.984 719.776l-42.144 42.56c-7.744 7.84-20.352 7.84-28.128 0L500.352 407.68c-7.776-7.84-7.776-20.544 0-28.384l42.144-42.56c7.744-7.808 20.384-7.808 28.128 0L921.984 691.392C929.76 699.264 929.76 711.968 921.984 719.776z"  horiz-adv-x="1024" />

    
    <glyph glyph-name="role" unicode="&#59071;" d="M902.068357 151.426681c0 60.965821-71.69129 136.044101-128.705623 144.511577l77.336273 127.576626L671.753032 423.514884c32.176406 46.288864 53.627343 107.254686 53.627343 174.994487 0 5.080485 0 10.725469 0 15.805954 69.433297 12.418964 114.593164 32.176406 114.593164 51.933848 0 21.450937-50.240353 41.208379-127.012128 53.627343-3.38699 18.063947-55.320838 164.269019-116.286659 164.269019-27.095921 0-48.546858-14.112459-62.659316-35.563396l0 0c0-10.725469-10.725469-21.450937-24.837927-21.450937-12.418964 0-23.144432 9.031974-24.837927 19.757442l0 0C471.920617 868.339581 448.776185 884.710033 421.680265 884.710033 362.407938 884.710033 307.0871 750.359427 294.668137 716.489526 228.62183 704.070562 185.719956 686.006615 185.719956 664.555678s44.595369-39.514884 114.593164-51.933848c0-5.080485 0-10.725469 0-15.805954 0-67.739802 19.757442-128.705623 53.627343-174.994487L174.994487 421.821389l76.771775-125.318633c-57.014333 0-132.092613-78.46527-132.092613-146.76957l1.693495-205.477398c0-33.869901 26.531422-60.965821 60.965821-60.965821l661.027563 0c33.869901 0 60.965821 27.095921 60.965821 60.965821L902.068357 151.426681zM711.267916 719.876516 711.267916 719.876516 711.267916 719.876516 711.267916 719.876516zM464.582139-66.46968l-28.789416 0-53.627343 395.148842 112.335171-98.222712L464.582139-66.46968zM587.642778-66.46968 558.853363-66.46968l-30.482911 296.92613 112.899669 99.916207L587.642778-66.46968zM655.38258 557.300992l0-12.418964-14.112459 0c0 0-9.031974-76.771775-57.014333-76.771775-48.546858 0-57.578831 76.771775-57.578831 76.771775l-32.176406 0c-7.338479-62.659316-39.514884-76.771775-57.014333-76.771775-42.901874 0-55.320838 57.014333-57.014333 76.771775l-14.676957 0L365.794928 557.300992l0 12.418964 107.254686 0L473.049614 557.300992l71.69129 0 0 12.418964 107.254686 0L651.99559 557.300992 655.38258 557.300992z"  horiz-adv-x="1024" />

    
    <glyph glyph-name="api" unicode="&#58969;" d="M883.709544 652.345685 740.063891 508.700031 634.727318 614.036603 778.372972 757.682257C798.109717 777.419002 795.048297 812.53227 775.75028 831.830286 756.48797 851.092596 721.338996 854.189723 701.602251 834.452978L557.956597 690.807324 468.688316 780.075605 360.049254 671.436543C256.197465 567.584755 258.822511 391.673238 315.68806 294.997346L59.888409 39.197691 150.942055-51.855955 406.741708 203.943698C517.700527 132.795222 677.543752 146.238467 781.395541 250.090256L890.034603 358.729318 816.834612 431.929309 960.480266 575.574963C980.217012 595.31171 975.405933 632.174634 956.141837 651.438729 936.850963 670.729604 901.339158 669.975298 883.709544 652.345685L883.709544 652.345685Z"  horiz-adv-x="1024" />

    
    <glyph glyph-name="leibieguanli" unicode="&#58906;" d="M390.4 384 185.6 384C118.5 384 64 438.5 64 505.6L64 710.4C64 777.5 118.5 832 185.6 832l204.9 0c67 0 121.6-54.5 121.6-121.6l0-204.9C512 438.5 457.5 384 390.4 384zM185.6 768c-31.7 0-57.6-25.8-57.6-57.6l0-204.9c0-31.7 25.8-57.6 57.6-57.6l204.9 0c31.7 0 57.6 25.8 57.6 57.6L448.1 710.4c0 31.7-25.8 57.6-57.6 57.6L185.6 768zM902.4 384 697.6 384c-67 0-121.6 54.5-121.6 121.6L576 710.4c0 67 54.5 121.6 121.6 121.6l204.9 0c67 0 121.6-54.5 121.6-121.6l0-204.9C1024 438.5 969.5 384 902.4 384zM697.6 768c-31.7 0-57.6-25.8-57.6-57.6l0-204.9c0-31.7 25.8-57.6 57.6-57.6l204.9 0c31.7 0 57.6 25.8 57.6 57.6L960.1 710.4c0 31.7-25.8 57.6-57.6 57.6L697.6 768zM390.4-128 185.6-128c-67 0-121.6 54.5-121.6 121.6L64 198.4c0 67 54.5 121.6 121.6 121.6l204.9 0c67 0 121.6-54.5 121.6-121.6l0-204.9C512-73.5 457.5-128 390.4-128zM185.6 256c-31.7 0-57.6-25.8-57.6-57.6l0-204.9c0-31.7 25.8-57.6 57.6-57.6l204.9 0c31.7 0 57.6 25.8 57.6 57.6L448.1 198.4c0 31.7-25.8 57.6-57.6 57.6L185.6 256zM902.4-128 697.6-128c-67 0-121.6 54.5-121.6 121.6L576 198.4c0 67 54.5 121.6 121.6 121.6l204.9 0c67 0 121.6-54.5 121.6-121.6l0-204.9C1024-73.5 969.5-128 902.4-128zM697.6 256c-31.7 0-57.6-25.8-57.6-57.6l0-204.9c0-31.7 25.8-57.6 57.6-57.6l204.9 0c31.7 0 57.6 25.8 57.6 57.6L960.1 198.4c0 31.7-25.8 57.6-57.6 57.6L697.6 256z"  horiz-adv-x="1025" />

    
    <glyph glyph-name="wenzhang" unicode="&#59533;" d="M861.866667 536.33633 861.866667-14.456169C861.866667-50.455108 832.652991-79.644444 796.607093-79.644444L142.059574-79.644444C105.942853-79.644444 76.8-50.531897 76.8-14.33315L76.8 725.44426C76.8 761.426564 106.151124 790.755556 142.005952 790.755556L692.912859 790.755556C703.909461 790.755556 712.82397 799.670064 712.82397 810.666667 712.82397 821.66327 703.909461 830.577778 692.912859 830.577778L142.005952 830.577778C84.164641 830.577778 36.977778 783.426498 36.977778 725.44426L36.977778-14.33315C36.977778-72.534383 83.958917-119.466667 142.059574-119.466667L796.607093-119.466667C854.638768-119.466667 901.688889-72.455748 901.688889-14.456169L901.688889 536.33633 901.688889 609.520319C901.688889 620.516922 892.77438 629.43143 881.777778 629.43143 870.781175 629.43143 861.866667 620.516922 861.866667 609.520319L861.866667 536.33633ZM199.111111 497.777778l284.444444 0 0-39.822222-284.444444 0 0 39.822222ZM199.111111 270.222222l512 0 0-39.822222-512 0 0 39.822222ZM952.707045 891.692042l28.158563-28.158563-402.265191-402.265191-28.158563 28.158563 402.265191 402.265191Z"  horiz-adv-x="1024" />

    
    <glyph glyph-name="leibie5" unicode="&#58945;" d="M134.095 640c13.465 0 24.381 9.551 24.381 21.333 0 11.782-10.916 21.334-24.38 21.334H36.57c-13.465 0-24.38-9.552-24.38-21.334S23.105 640 36.57 640h97.524z m0-277.333c13.465 0 24.381 9.55 24.381 21.333 0 11.782-10.916 21.333-24.38 21.333H36.57c-13.465 0-24.38-9.55-24.38-21.333 0-11.782 10.915-21.333 24.38-21.333h97.524z m0-277.334c13.465 0 24.381 9.552 24.381 21.334S147.56 128 134.096 128H36.57c-13.465 0-24.38-9.551-24.38-21.333 0-11.782 10.915-21.334 24.38-21.334h97.524zM987.43 640c13.465 0 24.38 9.551 24.38 21.333 0 11.782-10.915 21.334-24.38 21.334H280.38c-13.465 0-24.381-9.552-24.381-21.334S266.916 640 280.381 640h707.048z m6.095-277.333c13.465 0 24.38 9.55 24.38 21.333 0 11.782-10.915 21.333-24.38 21.333H286.476c-13.465 0-24.38-9.55-24.38-21.333 0-11.782 10.915-21.333 24.38-21.333h707.048z m3.047-277.334c13.466 0 24.381 9.552 24.381 21.334S1010.037 128 996.572 128H289.523c-13.465 0-24.381-9.551-24.381-21.333 0-11.782 10.916-21.334 24.38-21.334h707.048z"  horiz-adv-x="1024" />

    
    <glyph glyph-name="lipin" unicode="&#59165;" d="M515.974594 133.600565m-27.460833 0a27.460833 27.460833 0 1 1 54.921666 0 27.460833 27.460833 0 1 1-54.921666 0ZM515.974594 229.713479m-27.460833 0a27.460833 27.460833 0 1 1 54.921666 0 27.460833 27.460833 0 1 1-54.921666 0ZM515.974594 326.549047m-27.460833 0a27.460833 27.460833 0 1 1 54.921666 0 27.460833 27.460833 0 1 1-54.921666 0ZM828.160903 617.778405H667.731828c18.788991 13.007763 28.90614 28.183486 33.964714 41.191249 10.839802 26.738179 3.613267 52.753705-8.671842 67.206775-4.335921 5.781228-22.402258 25.292872-53.476358 23.847565-39.023289-2.16796-79.491884-35.410021-123.573748-101.894142-43.35921 66.484121-84.550459 100.448836-123.573747 101.894142-31.0741 1.445307-49.140438-18.066337-53.476359-23.847565-12.285109-14.45307-19.511644-40.468596-8.671842-67.206775 5.058574-13.007763 15.175723-27.460833 33.964715-41.191249H203.065632c-27.460833 0-49.863091-22.402258-49.863091-49.863091v-132.968243c0-4.335921 1.445307-8.671842 3.613267-13.007763l9.394495-16.62103V57.721948c0-27.460833 22.402258-49.863091 49.863091-49.863091h598.357093c27.460833 0 49.863091 22.402258 49.863091 49.863091V405.318278l9.394495 16.62103c2.16796 3.613267 3.613267 7.949188 3.613268 13.007763V567.192661c0.722653 28.183486-21.679605 50.585745-49.140438 50.585744z m-187.889908 81.659845h1.445307c5.781228 0 8.671842-2.890614 10.117149-4.335921l1.445307-1.445307c0.722653-1.445307 3.613267-7.949188 0-17.343684-3.613267-7.949188-19.511644-31.0741-87.441073-43.35921 41.913903 58.534933 66.484121 65.761468 74.43331 66.484122z m-263.768525-5.781228c0.722653 0.722653 1.445307 1.445307 1.445307 2.16796 0 0 3.613267 3.613267 10.117149 3.613268h0.722653c7.949188-0.722653 33.242061-7.226535 75.155964-66.484122-67.929428 12.285109-83.827805 35.410021-87.441073 43.35921-3.613267 9.394495-0.722653 15.898377 0 17.343684zM203.788285 449.400141l-0.722653 117.79252h286.893436v-117.79252H203.788285z m610.642202-391.678193H216.796048V398.814397h597.634439V57.721948z m13.007763 391.678193H540.544813V567.192661h286.893437v-117.79252z"  horiz-adv-x="1024" />

    
    <glyph glyph-name="richeng" unicode="&#58939;" d="M818.213 298.99h-602.021c-13.367 0-24.229 11.063-24.229 24.686 0 13.586 10.862 24.649 24.229 24.649h602.021c13.367 0 24.21-11.045 24.21-24.649 0-13.623-10.825-24.686-24.21-24.686v0zM622.592 161.609h-406.4c-13.367 0-24.229 11.045-24.229 24.667 0 13.586 10.862 24.649 24.229 24.649h406.4c13.385 0 24.21-11.045 24.21-24.649 0-13.623-10.825-24.667-24.21-24.667v0zM342.656 602.405c26.13 0 47.36 21.486 47.36 47.909v142.939c0 26.423-21.23 47.89-47.36 47.89-26.112 0-47.36-21.467-47.36-47.89v-142.939c0-26.423 21.266-47.909 47.36-47.909zM697.051 602.405c26.112 0 47.36 21.486 47.36 47.909v142.939c0 26.423-21.248 47.89-47.36 47.89-26.13 0-47.397-21.467-47.397-47.89v-142.939c-0-26.423 21.266-47.909 47.397-47.909zM450.999 673.902h137.655c26.112 0 47.378 21.486 47.378 47.909 0 26.405-21.266 47.89-47.378 47.89h-137.655c-26.13 0-47.378-21.467-47.378-47.89-0-26.423 21.248-47.909 47.378-47.909zM818.231 769.719h-13.824c-26.112 0-47.36-21.486-47.36-47.89 0-26.423 21.248-47.927 47.36-47.927h13.824c41.070 0 74.478-34.103 74.478-76.050v-45.44l-761.417 0v42.423c0 43.575 34.743 79.031 77.422 79.031h24.777c26.13 0 47.36 21.486 47.36 47.909 0 26.405-21.23 47.89-47.36 47.89h-24.777c-94.903 0.018-172.142-78.391-172.142-174.793v-500.901c0-92.123 73.838-167.113 164.59-167.113h611.182c46.775 0 90.752 18.578 123.849 52.297 33.042 33.627 51.255 78.245 51.237 125.659l-0 493.056c0 94.757-75.904 171.849-169.198 171.849zM812.306 22.674h-611.2c-38.473 0-69.815 32-69.815 71.333v409.143h761.417v-398.318c0-45.294-36.059-82.158-80.402-82.158z"  horiz-adv-x="1024" />

    
    <glyph glyph-name="xinxiaoxi1" unicode="&#58912;" d="M407.509333-87.424a34.773333 34.773333 0 0 0-26.794666 13.226667l-81.706667 86.613333H161.066667C72.234667 12.373333 0 83.584 0 171.136V523.904C0 611.456 72.234667 682.666667 161.066667 682.666667h487.936c88.789333 0 161.066667-71.210667 161.066666-158.762667v-352.768c0-87.552-72.234667-158.762667-161.066666-158.762667h-130.816l-82.346667-87.082666c-2.048-2.176-12.928-12.714667-28.330667-12.714667zM161.066667 644.522667C93.568 644.522667 38.698667 590.421333 38.698667 523.904v-352.768c0-66.517333 54.912-120.618667 122.368-120.618667h154.794666l92.672-98.218666 92.885334 98.218666h147.626666c67.498667 0 122.368 54.101333 122.368 120.618667V523.904c0 66.517333-54.912 120.618667-122.368 120.618667H161.066667z m4.522666-297.002667c0-13.098667 5.461333-26.154667 14.890667-35.413333 9.429333-9.258667 22.613333-14.677333 35.925333-14.677334a50.389333 50.389333 0 0 1 50.816 50.090667c0 13.098667-5.461333 26.154667-14.890666 35.413333a51.797333 51.797333 0 0 1-35.925334 14.677334c-13.312 0-26.538667-5.418667-35.925333-14.677334a50.218667 50.218667 0 0 1-14.890667-35.413333z m187.306667 0c0-13.098667 5.461333-26.154667 14.890667-35.413333 9.386667-9.258667 22.613333-14.677333 35.925333-14.677334a50.389333 50.389333 0 0 1 50.816 50.090667c0 13.098667-5.461333 26.154667-14.890667 35.413333a51.797333 51.797333 0 0 1-35.925333 14.677334c-13.312 0-26.538667-5.418667-35.925333-14.677334a50.218667 50.218667 0 0 1-14.890667-35.413333z m194.389333 0c0-13.098667 5.461333-26.154667 14.890667-35.413333 9.386667-9.258667 22.613333-14.677333 35.925333-14.677334a50.389333 50.389333 0 0 1 50.816 50.090667c0 13.098667-5.461333 26.154667-14.890666 35.413333a51.797333 51.797333 0 0 1-35.925334 14.677334c-13.312 0-26.538667-5.418667-35.925333-14.677334a50.218667 50.218667 0 0 1-14.890667-35.413333zM810.666667 469.333333a213.333333 213.333333 0 1 1-0.042667 426.709334A213.333333 213.333333 0 0 1 810.666667 469.333333z"  horiz-adv-x="1024" />

    
    <glyph glyph-name="richeng1" unicode="&#58940;" d="M864-96L160-96c-35.328 0-64 28.672-64 64L96 672c0 35.36 28.672 64 64 64l64 0 0-32c0-53.024 42.976-96 96-96 52.992 0 96 42.976 96 96l0 32 192 0 0-32c0-53.024 43.008-96 96-96s96 42.976 96 96l0 32 64 0c35.328 0 64-28.64 64-64l0-704C928-67.328 899.328-96 864-96zM864 512L160 512l0-544 704 0L864 512zM800 352L224 352l0 96 576 0L800 352zM800 192L224 192l0 96 576 0L800 192zM800 32L224 32l0 96 576 0L800 32zM703.008 640C668.192 640 640 668.224 640 703.008l0 65.984C640 803.808 668.192 832 703.008 832c34.816 0 63.008-28.192 63.008-63.008l0-65.984C766.016 668.224 737.824 640 703.008 640zM319.008 640C284.192 640 256 668.224 256 703.008l0 65.984C256 803.808 284.192 832 319.008 832c34.816 0 63.008-28.192 63.008-63.008l0-65.984C382.016 668.224 353.792 640 319.008 640z"  horiz-adv-x="1024" />

    
    <glyph glyph-name="shenhe" unicode="&#59083;" d="M800 211.2l-83.2 12.8c-6.4 25.6-32 64-76.8 76.8-12.8 6.4-19.2 12.8-12.8 32 6.4 25.6 64 275.2 12.8 358.4-38.4 57.6-121.6 57.6-128 57.6s-89.6 0-128-57.6c-57.6-83.2 0-332.8 6.4-358.4 6.4-19.2 0-25.6-12.8-25.6-44.8-12.8-64-51.2-76.8-76.8l-83.2-12.8c-25.6 0-57.6-25.6-57.6-64v-64c0-38.4 25.6-64 64-64h569.6c38.4 0 64 25.6 64 64v64c0 32-25.6 57.6-57.6 57.6z m-6.4-128H224v64l108.8 19.2c12.8 0 25.6 12.8 25.6 25.6 0 0 6.4 38.4 38.4 51.2 44.8 12.8 70.4 57.6 57.6 102.4-19.2 89.6-51.2 268.8-19.2 307.2 19.2 25.6 64 32 76.8 32s57.6-6.4 76.8-32c32-38.4 0-217.6-19.2-307.2-19.2-44.8 6.4-89.6 51.2-102.4 32-6.4 38.4-51.2 38.4-51.2 0-12.8 12.8-25.6 25.6-25.6l108.8-19.2v-64z"  horiz-adv-x="1024" />

    
    <glyph glyph-name="xinzeng" unicode="&#58923;" d="M870.4 473.6H601.6V742.4c0 49.5-40.1 89.6-89.6 89.6-49.5 0-89.6-40.1-89.6-89.6v-268.8H153.6c-49.5 0-89.6-40.1-89.6-89.6 0-49.5 40.1-89.6 89.6-89.6h268.8v-268.8c0-49.5 40.1-89.6 89.6-89.6 49.5 0 89.6 40.1 89.6 89.6V294.4h268.8c49.5 0 89.6 40.1 89.6 89.6 0 49.5-40.1 89.6-89.6 89.6z"  horiz-adv-x="1024" />

    
    <glyph glyph-name="gaowei" unicode="&#58957;" d="M512 896C230.4 896 0 665.6 0 384s230.4-512 512-512 512 230.4 512 512S793.6 896 512 896zM358.4-25.6l102.4 358.4H307.2l358.4 460.8-102.4-358.4h153.6l-358.4-460.8z"  horiz-adv-x="1024" />

    
    <glyph glyph-name="gonggao" unicode="&#59775;" d="M463.734228-33.862993c-30.410614 27.420513-62.602803 56.040341-96.588849 85.851297-33.981952 29.806863-65.580624 57.232492-94.799086 82.270748a12736.087365 12736.087365 0 0 1-101.94995 84.956928c-6.559393-0.595564-13.116739-0.89744-19.672038-0.89744-5.367241-0.592494-11.030218-0.889253-16.996093-0.889253h-15.20019c-16.1007 0-29.213345 4.915963-39.34817 14.754029-10.135848 9.839089-15.20633 21.611204-15.20633 35.322483V492.866477h0.895393l-0.895393 0.895392c0 16.694217 5.217838 30.405497 15.650445 41.137933 10.432607 10.729365 23.401989 16.095583 38.904055 16.095583h50.973952c54.852282 46.505173 104.636129 88.2356 149.352563 125.198444a5874.417145 5874.417145 0 0 0 56.341192 46.949288c18.485003 15.205307 35.178197 29.063943 50.080606 41.584094 14.909571 12.518105 27.428699 22.955828 37.563524 31.299867 10.133801 8.348132 16.394389 13.414521 18.782785 15.204283 17.886369 13.118785 32.343639 19.077497 43.36874 17.886369 11.032264-1.193175 19.677155-6.559393 25.940812-16.099676 6.255471-9.53619 10.577916-21.160949 12.964266-34.877345 2.38328-13.71128 3.576455-26.230408 3.576455-37.557384v-724.367759c0-11.325953-2.083451-23.400966-6.257517-36.220946-4.175089-12.81384-10.585079-22.950711-19.2269-30.403451-8.646937-7.454786-19.528775-10.579963-32.646538-9.387811-13.114692 1.191128-28.319999 9.833973-45.607734 25.933649zM752.597195 497.337301c12.518105-17.285688 22.505573-34.726919 29.959336-52.315506 7.449669-17.585517 11.17962-38.903032 11.17962-63.942311 0-23.845081-3.87833-45.306882-11.629875-64.387449-7.749498-19.079544-17.585517-36.366256-29.509081-51.867298-4.767584-6.557346-9.840112-12.370749-15.20633-17.439184-5.361101-5.064342-12.222369-7.600095-20.566408-7.600096-10.734482 0-19.826558 3.875261-27.275203 11.621689-7.453762 7.753591-11.17962 16.993023-11.179621 27.726481 0 4.768607 0.889253 9.53619 2.681063 14.306844h-0.89744a117.40392 117.40392 0 0 0 10.734482 18.778692 392.827807 392.827807 0 0 1 12.07399 18.335601c3.873214 6.258541 7.151887 13.413498 9.831926 21.460777 2.687202 8.049327 4.02671 17.73799 4.02671 29.064966 0 10.734482-1.339508 20.122293-4.02671 28.170597-2.680039 8.046257-5.959735 15.35164-9.831926 21.910009a292.327882 292.327882 0 0 1-12.07399 18.780738c-4.176113 5.960759-7.454786 12.222369-9.840112 18.776646-1.789763 4.174066-2.679016 8.942673-2.679016 14.309914 0 10.732435 3.725858 19.97289 11.17962 27.721365 7.448646 7.751544 16.539698 11.625782 27.275204 11.625781 8.344039 0 15.205307-2.533706 20.566408-7.598048 5.367241-5.069459 10.43977-10.881838 15.207353-17.440208z m50.081629-401.532049c-7.15905-5.366218-15.501042-8.04728-25.044396-8.04728-11.920494 0-22.204721 4.324492-30.848589 12.966313-8.647961 8.643867-12.971429 18.929118-12.971429 30.853705 0 13.116739 5.070482 24.14491 15.20633 33.087583 0.591471 0.596588 1.191128 1.043772 1.784646 1.344624 0.600681 0.294712 1.194198 0.740874 1.791809 1.337461l0.895393 0.89744c16.693194 11.32493 32.197306 24.740474 46.499034 40.242539a296.482505 296.482505 0 0 1 37.564547 50.524721c10.732435 18.184151 19.078521 37.557384 25.038256 58.127885 5.964852 20.569478 8.942673 41.881876 8.942673 63.940264 0 44.715411-11.325953 85.556585-33.980929 122.519428-22.657023 36.963866-50.977022 67.36834-84.958974 91.213422-12.519128 8.943696-18.781762 20.868283-18.781762 35.771714 0 11.92561 4.322445 22.207791 12.97143 30.853706 8.643867 8.645914 18.929118 12.964266 30.848588 12.964266 10.136871 0 19.078521-3.27458 26.830065-9.83295 22.061458-15.501042 42.632983-33.534767 61.711504-54.105268 19.078521-20.568455 35.470863-42.925648 49.187259-67.071582 13.71128-24.14491 24.441669-49.928133 32.190143-77.354785 7.752568-27.420513 11.629875-55.742559 11.629875-84.955904 0-29.810956-3.877307-58.425667-11.629875-85.851297-7.750521-27.42256-18.627243-53.356208-32.639374-77.799923-14.010085-24.444738-30.553876-46.947242-49.632398-67.518767-19.080567-20.571525-39.948851-38.607296-62.603826-54.107315z"  horiz-adv-x="1024" />

    
    <glyph glyph-name="extend" unicode="&#59360;" d="M192 360l171.2-171.2 27.2 11.2c0 35.2 28.8 62.4 62.4 62.4 35.2 0 62.4-28.8 62.4-62.4 0-35.2-27.2-62.4-62.4-62.4l-6.4-14.4-8 3.2c-1.6-4.8-3.2-8 3.2-16v-1.6l62.4-62.4h22.4l92.8 92.8c4.8-12.8 14.4-24 24-32 16-14.4 38.4-24 62.4-24 52.8 0 94.4 43.2 94.4 94.4 0 9.6-1.6 19.2-4.8 27.2-8 25.6-27.2 48-51.2 59.2l92.8 92.8V384l-150.4 150.4h1.6c36.8 12.8 64 48 64 89.6 0 38.4-24 72-57.6 86.4-3.2 1.6-6.4 1.6-8 3.2-9.6 3.2-17.6 4.8-28.8 4.8-41.6 0-76.8-27.2-89.6-65.6l-41.6 41.6h-22.4l-110.4-110.4 9.6-27.2c30.4-4.8 52.8-30.4 52.8-60.8 0-35.2-28.8-62.4-62.4-62.4-30.4 0-57.6 22.4-60.8 52.8l-28.8 8-112-110.4c-6.4-6.4-6.4-17.6 0-24z m182.4-158.4z m78.4-78.4l14.4-6.4-14.4 6.4z m-49.6 448z m-11.2-155.2c43.2 0 78.4 35.2 78.4 78.4 0 33.6-20.8 60.8-49.6 72l92.8 92.8 52.8-52.8 27.2 12.8v3.2c0 35.2 28.8 62.4 62.4 62.4s64-27.2 64-60.8c0-35.2-27.2-62.4-62.4-62.4h-3.2l-14.4-27.2 161.6-161.6-100.8-100.8 9.6-27.2c32-3.2 56-30.4 56-62.4 0-35.2-28.8-62.4-62.4-62.4-32 0-59.2 24-62.4 56l-27.2 9.6-100.8-100.8-41.6 41.6c33.6 8 59.2 40 59.2 75.2 0 43.2-35.2 78.4-78.4 78.4-36.8 0-67.2-25.6-75.2-59.2l-150.4 150.4L320 464c11.2-27.2 38.4-48 72-48z m-76.8 67.2z"  horiz-adv-x="1024" />

    
    <glyph glyph-name="chajian" unicode="&#58907;" d="M702.836-116.364H104.727c-48.872 0-88.436 39.564-88.436 88.437V118.69c0 9.309 4.654 16.29 11.636 23.273s16.291 6.981 23.273 4.654c13.964-4.654 23.273-4.654 34.91-4.654 72.145 0 130.326 58.181 130.326 130.327 0 72.145-58.181 130.327-130.327 130.327-9.309 0-20.945-2.327-34.909-4.654-9.31-2.328-16.29 0-23.273 4.654s-11.636 13.964-11.636 23.273V570.18c0 48.874 39.564 88.437 88.436 88.437h116.364c-2.327 13.964-2.327 27.927-2.327 41.891 0 102.4 83.781 186.182 186.181 186.182s186.182-83.782 186.182-186.182c0-13.964-2.327-27.927-4.654-41.89h116.363c48.873 0 88.437-39.564 88.437-88.437v-114.037c9.309 2.328 18.618 2.328 27.927 2.328 102.4 0 186.182-83.782 186.182-186.182S921.6 86.109 819.2 86.109c-9.31 0-18.618 0-27.927 2.327V-25.6c2.327-51.2-37.237-90.764-88.437-90.764zM72.146 83.782v-111.71c0-18.617 13.963-32.581 32.581-32.581h598.11c18.618 0 32.581 13.964 32.581 32.582V123.345c0 9.31 4.655 18.619 11.637 23.273 6.981 4.655 16.29 6.982 25.6 2.327 16.29-4.654 30.254-9.309 44.218-9.309 72.145 0 130.327 58.182 130.327 130.328 0 72.145-58.182 130.327-130.327 130.327-13.964 0-30.255-2.327-44.218-9.31-9.31-2.326-18.619-2.326-25.6 2.328-6.982 4.655-11.637 13.964-11.637 23.273v153.6c0 18.618-13.963 32.582-32.582 32.582H546.91c-9.309 0-18.618 4.654-23.273 13.963-4.654 9.31-4.654 18.618-2.327 27.928 9.31 18.618 13.964 37.236 13.964 55.854 0 72.146-58.182 130.327-130.328 130.327S274.618 772.655 274.618 700.51c0-18.618 4.655-37.236 13.964-55.854 4.654-9.31 4.654-18.619-2.327-27.928-4.655-9.309-13.964-13.963-23.273-13.963H104.727c-18.618 0-32.582-13.964-32.582-32.582v-111.71H86.11c102.4 0 186.182-83.781 186.182-186.181S188.509 86.109 86.109 86.109c-4.654-2.327-9.309-2.327-13.964-2.327z"  horiz-adv-x="1024" />

    
    <glyph glyph-name="ccgl-tongbucaozuorizhi-4" unicode="&#58880;" d="M767 9h-510c-66 0-117 54-117 117v36c0 15 12 24 24 24s24-12 24-24v-36c0-39 30-69 69-69h510c39 0 69 30 69 69v162c0 15 12 24 24 24s24-12 24-24v-162c3-63-51-117-117-117zM164 288c-15 0-24 12-24 24v147c0 15 12 24 24 24s24-12 24-24v-147c0-12-12-24-24-24zM860 456c-15 0-24 12-24 24v162c0 39-30 69-69 69h-510c-39 0-69-30-69-69v-33c0-15-12-24-24-24s-24 9-24 24v33c0 66 54 117 117 117h510c66 0 117-54 117-117v-159c3-15-9-27-24-27zM233 510h-147c-12 0-24 9-24 24s12 24 24 24h144c15 0 24-12 24-24 3-15-9-24-21-24zM233 213h-147c-15 0-24 12-24 24s12 27 24 27h144c15 0 24-12 24-24 3-15-9-27-21-27zM668 510h-297c-15 0-24 12-24 24s12 24 24 24h297c15 0 24-12 24-24s-9-24-24-24zM668 360h-297c-15 0-24 12-24 24s12 24 24 24h297c15 0 24-12 24-24s-9-24-24-24zM668 213h-297c-15 0-24 12-24 24s12 27 27 27h297c15 0 24-12 24-24 0-15-12-27-27-27zM863 285c-54 0-99 45-99 99s45 99 99 99c54 0 99-45 99-99 0-54-45-99-99-99zM863 432c-27 0-48-21-48-48s21-48 48-48c27 0 48 21 48 48 3 27-21 48-48 48z"  horiz-adv-x="1024" />

    
    <glyph glyph-name="yanzhong" unicode="&#58958;" d="M0 810.666667c0 51.2 42.666667 85.333333 85.333333 85.333333h853.333334c51.2 0 85.333333-42.666667 85.333333-85.333333v-853.333334c0-51.2-42.666667-85.333333-85.333333-85.333333H85.333333c-51.2 0-85.333333 42.666667-85.333333 85.333333V810.666667z m341.333333-341.333334c51.2 0 85.333333 34.133333 85.333334 85.333334s-34.133333 85.333333-85.333334 85.333333-85.333333-34.133333-85.333333-85.333333 34.133333-85.333333 85.333333-85.333334z m341.333334 0c51.2 0 85.333333 34.133333 85.333333 85.333334s-34.133333 85.333333-85.333333 85.333333-85.333333-34.133333-85.333334-85.333333 34.133333-85.333333 85.333334-85.333334zM512 341.333333c-136.533333 0-230.4-68.266667-290.133333-196.266666-8.533333-17.066667 0-42.666667 17.066666-59.733334s42.666667 0 59.733334 17.066667c51.2 93.866667 110.933333 145.066667 221.866666 145.066667 102.4 0 170.666667-51.2 221.866667-145.066667 8.533333-17.066667 34.133333-25.6 59.733333-17.066667 17.066667 8.533333 25.6 34.133333 17.066667 59.733334-76.8 128-170.666667 196.266667-307.2 196.266666z"  horiz-adv-x="1024" />

    
    <glyph glyph-name="peizhi" unicode="&#58891;" d="M929.792 315.392l40.96 40.96-71.168 71.168-40.96-40.96c-25.6 20.48-55.808 30.72-91.648 35.84V478.208h-101.888v-55.808c-30.72-5.12-60.928-20.48-91.648-35.84l-40.96 40.96-71.68-71.68 40.96-40.96c-15.36-25.6-30.72-55.808-35.84-91.648H410.112v-101.888H465.92c5.12-30.72 20.48-60.928 35.84-91.648l-40.96-35.84 71.68-70.656 40.96 40.96c25.6-20.48 55.808-30.72 91.648-35.84v-56.32h101.888v51.2c30.72 5.12 60.928 20.48 91.648 35.84l40.96-40.96 71.168 71.168-40.96 40.96c15.36 25.6 30.72 55.808 35.84 91.648h55.808v101.888h-55.808c-5.12 35.328-20.48 66.048-35.84 91.648z m-214.016-295.424c-81.408 0-153.088 71.168-153.088 153.088 0 86.528 71.168 153.088 153.088 153.088 86.528 0 153.088-66.048 153.088-153.088 0-81.92-66.56-153.088-153.088-153.088zM410.112 794.112L358.912 896H2.56v-1018.88h407.552v101.888H104.448V590.336h815.104v-101.888h101.888V794.112H410.112z"  horiz-adv-x="1024" />

    
    <glyph glyph-name="daochu" unicode="&#58899;" d="M289.28 567.808c-1.536-1.536-2.048-3.584-1.024-5.632 0.512-2.048 2.56-3.072 4.608-3.072H430.08v-224.768c0-3.584 1.536-7.68 4.096-10.24 3.072-3.072 6.656-4.096 10.24-4.096h134.656c3.584 0 7.68 1.536 10.24 4.096 3.072 3.072 4.096 6.656 4.096 10.24l0.512 224.768h137.216c2.048 0 3.584 1.024 4.608 3.072 0.512 2.048 0 4.096-1.024 5.632L522.24 764.928c-2.56 2.56-6.144 4.096-10.24 4.096s-7.68-1.536-10.24-4.096L289.28 567.808zM945.152 270.336l-133.12 102.912c-7.68 6.144-21.504 10.752-31.232 10.752h-77.312l128.512-128h-128l-65.024-92.672H382.464L320 256h-128l127.488 128H241.152c-9.728 0-23.552-4.608-31.232-10.752l-133.12-102.912c-7.68-6.144-11.264-17.92-8.192-27.136l53.248-162.816c3.072-9.216 13.312-16.384 23.04-16.384h734.208c9.728 0 19.968 7.68 22.528 16.384l52.224 162.816c2.56 8.704-1.024 20.992-8.704 27.136z"  horiz-adv-x="1024" />

    
    <glyph glyph-name="cloud-test" unicode="&#58986;" d="M512-108.736C240.32-108.736 19.264 112.32 19.264 384S240.32 876.736 512 876.736c271.744 0 492.736-221.056 492.736-492.736S783.744-108.736 512-108.736zM512 813.44C275.2 813.44 82.56 620.8 82.56 384S275.2-45.504 512-45.504c236.864 0 429.504 192.704 429.504 429.504S748.864 813.44 512 813.44zM303.424 489.664c27.2-22.016 52.992-43.84 77.248-65.536-8.448-8.768-17.856-19.008-28.224-30.656a2176.064 2176.064 0 0 1-72.832 69.44l23.808 26.752z m40.32-140.416c15.552-8.064 28.352-14.08 38.4-17.92a13726.144 13726.144 0 0 1-47.104-179.264l-39.872 18.432a1356.8 1356.8 0 0 1 48.576 178.752z m-18.496 265.28c19.776-16.512 44.352-38.848 73.856-67.008-10.688-10.368-20.416-20.096-29.184-29.184-23.616 26.24-46.912 50.176-69.952 71.936l25.28 24.256z m158.848-93.248h35.52v-120.512c0-49.28-4.544-88.768-13.632-118.528 42.112-32.384 78.72-61.504 109.76-87.424l-26.24-29.696a1890.56 1890.56 0 0 1-96.128 84.544c-20.032-39.808-56.192-74.944-108.352-105.408a387.2 387.2 0 0 1-23.808 31.104c48.256 27.904 81.344 58.752 99.136 92.736 15.808 29.504 23.744 73.408 23.744 131.648V521.28zM408.32 597.056h183.168v-307.008h-35.008V563.008H443.328v-273.024H408.32V597.056z m300.672 26.688h35.52v-413.376c0-37.248-17.984-55.872-53.888-55.872-15.616 0-33.984 0.32-55.424 1.024a386.56 386.56 0 0 1-6.784 39.744c20.736-2.24 38.4-3.392 52.992-3.392 18.432 0 27.648 9.28 27.648 27.712V623.744z m-41.728-361.408h-33.984V584.384h33.984v-322.048z"  horiz-adv-x="1024" />

    
    <glyph glyph-name="ceshi" unicode="&#59538;" d="M937.6 67.2l-102.4 70.4c-3.2 0-3.2 3.2-6.4 3.2 44.8 67.2 73.6 150.4 73.6 236.8C905.6 611.2 716.8 800 483.2 800S64 611.2 64 380.8s188.8-419.2 419.2-419.2c99.2 0 192 35.2 265.6 96 3.2-3.2 3.2-6.4 6.4-6.4l102.4-70.4c9.6-9.6 25.6-16 41.6-16 19.2 0 35.2 6.4 48 22.4 19.2 19.2 16 57.6-9.6 80zM124.8 380.8C124.8 576 288 739.2 483.2 739.2c198.4 0 358.4-160 358.4-358.4 0-198.4-160-358.4-358.4-358.4-195.2 0-358.4 160-358.4 358.4zM748.8 345.6v32h-96c-3.2 35.2-16 70.4-35.2 96h80l35.2 140.8-32 6.4-28.8-115.2h-86.4c3.2 9.6 6.4 19.2 6.4 32 0 54.4-41.6 96-96 96s-96-41.6-96-96c0-9.6 3.2-22.4 6.4-32h-96l-28.8 115.2-32-6.4L288 473.6h80c-19.2-25.6-32-60.8-35.2-96h-96v-32h96c3.2-22.4 6.4-44.8 16-64H288l-35.2-140.8 32-6.4 28.8 115.2h57.6c28.8-38.4 73.6-64 124.8-64s92.8 25.6 124.8 64H672l28.8-115.2 32 6.4-35.2 140.8h-60.8c9.6 19.2 16 41.6 16 64h96z"  horiz-adv-x="1024" />

    
    <glyph glyph-name="extend1" unicode="&#59424;" d="M534.4-9.600000000000023h-44.8l-70.4 70.4 22.4 54.4c32 0 57.6 25.6 57.6 57.6s-25.6 57.6-57.6 57.6-57.6-25.6-57.6-57.6l-54.4-22.4-195.2 195.2v44.8l128 128 54.4-19.2c3.2-28.8 28.8-48 57.6-48 32 0 57.6 25.6 57.6 57.6 0 28.8-22.4 54.4-48 57.6l-19.2 54.4 128 128h44.8l32-32c19.2 38.4 60.8 64 108.8 64 67.2 0 121.6-54.4 121.6-121.6 0-48-25.6-86.4-64-108.8l156.8-156.8v-44.8L800 256c32-22.4 54.4-60.8 54.4-102.4 0-67.2-54.4-121.6-121.6-121.6-41.6 0-80 22.4-102.4 54.4l-96-96z m-32 76.8l9.6-9.6 105.6 105.6 54.4-19.2c3.2-28.8 28.8-51.2 57.6-51.2 32 0 57.6 25.6 57.6 57.6 0 28.8-22.4 54.4-51.2 57.6l-19.2 54.4 105.6 105.6-176 176 25.6 54.4h3.2c32 0 57.6 25.6 57.6 57.6s-25.6 57.6-57.6 57.6-57.6-25.6-57.6-57.6v-3.2l-54.4-25.6L512 678.4 441.6 608c32-22.4 51.2-57.6 51.2-99.2 0-67.2-54.4-121.6-121.6-121.6-41.6 0-76.8 19.2-99.2 51.2l-70.4-70.4 134.4-134.4c22.4 35.2 60.8 60.8 105.6 60.8 67.2 0 121.6-54.4 121.6-121.6 0-44.8-25.6-83.2-60.8-105.6z"  horiz-adv-x="1024" />

    
    <glyph glyph-name="yonghu" unicode="&#58993;" d="M789.8 215.1c-8.5 8.3-22.3 8.3-30.8 0s-8.5-21.9 0-30.2c65.8-64.6 102.1-104.4 102.1-195.7 0-11.8 9.7-21.4 21.8-21.4s21.8 9.6 21.8 21.4c0 102.7-40.8 153.2-114.9 225.9zM512.6 797.8c-144.1 0-261.4-115.1-261.4-256.5 0-100.9 59.7-188.4 146.2-230.2-60.6-18.2-116-50.7-162-95.9-74.1-72.7-114.9-123.2-114.9-226 0-11.8 9.7-21.4 21.8-21.4 12 0 21.8 9.6 21.8 21.4 0 91.4 36.2 131.1 102.1 195.7 63.4 62.3 147.1 97.6 236.4 100 3.3-0.1 6.7-0.2 10-0.2 144.1 0 261.4 115.1 261.4 256.5 0 141.5-117.3 256.6-261.4 256.6z m3.6-470.3c-1.2 0.2-2.4 0.3-3.7 0.3-3.3 0-6.6 0-9.9-0.1-115.5 5.1-207.9 98.9-207.9 213.5 0 117.9 97.7 213.8 217.8 213.8 120.1 0 217.8-95.9 217.8-213.8 0.1-116.6-95.7-211.8-214.1-213.7z"  horiz-adv-x="1024" />

    
    <glyph glyph-name="jifen1" unicode="&#58919;" d="M515.88 415.36c188.064 0 387.88 61.728 387.88 176.32C903.76 706.272 703.944 768 515.88 768S128 706.272 128 591.68c0-114.592 199.816-176.32 387.88-176.32z m0 282.16c193.72 0 317.392-62.616 317.392-105.84 0-43.216-123.68-105.72-317.392-105.72-193.72 0-317.4 62.608-317.4 105.72s123.68 105.84 317.4 105.84zM198.376 443.512a35.144 35.144 0 0 1-49.208-7.76c-14.408-19.728-21.504-40.784-21.056-62.504 0.88-53.08 46.32-99.296 127.664-130.216 67.272-25.6 154.488-39.344 247.024-39.344 5.32 0 10.752 0.112 16.184 0.112 188.064 3.328 386.768 68.6 384.776 182.968-0.224 16.624-4.88 32.8-13.968 48.208-9.864 16.848-31.696 22.392-48.208 12.528a35.168 35.168 0 0 1-12.52-48.32c2.768-4.768 4.096-9.088 4.208-13.52 0.776-43.112-121.792-107.832-315.512-111.376-90.208-1.112-173.88 10.744-236.824 34.688-49.648 18.84-81.896 44.544-82.232 65.6-0.112 5.992 2.44 12.64 7.424 19.616 11.416 15.848 7.984 37.904-7.76 49.32zM836.6 234.72c-16.072-10.856-20.504-32.8-9.528-48.984 4.208-6.2 6.2-11.856 6.2-17.176 0-43.112-123.68-105.84-317.392-105.84-193.72 0-317.4 62.728-317.4 105.84 0 5.208 1.888 10.64 5.656 16.4a35.344 35.344 0 0 1-10.08 48.88 35.44 35.44 0 0 1-48.88-10.088C133.76 206.352 128 187.84 128 168.672c0-114.704 199.816-176.432 387.88-176.432s387.88 61.728 387.88 176.32c0 19.616-6.096 38.68-18.176 56.632-10.864 16.176-32.8 20.392-48.984 9.528z"  horiz-adv-x="1024" />

    
    <glyph glyph-name="xinxiaoxi2" unicode="&#58913;" d="M910.2 182.6c-62.4 53.3-106.9 195-106.9 361.4 0 126-81.9 232.7-195.8 271.8C599.8 861.3 560.1 896 512 896s-87.8-34.7-95.5-80.2C302.6 776.7 220.8 670 220.8 544c0-166.4-44.6-308-106.9-361.4C79 152.8 59 109.6 59 64c0-53 43.4-96 97.1-96H415c0-53 43.4-96 97.1-96 53.6 0 97.1 43 97.1 96H868c53.6 0 97.1 43 97.1 96-0.1 45.5-20.1 88.8-54.9 118.6zM156 64c0 17.7 7.8 34.5 21.3 46 86.7 74.1 140.5 240.4 140.5 434 0 105.9 87.1 192 194.2 192s194.2-86.1 194.2-192c0-193.6 53.9-359.9 140.5-434 13.5-11.6 21.3-28.3 21.3-46H156z"  horiz-adv-x="1024" />

    
    <glyph glyph-name="jilu" unicode="&#58966;" d="M959.636375 1.612368H64.295636c-24.147663 0-43.815636-19.625309-43.815636-43.815636 0-24.147663 19.667973-43.815636 43.815636-43.815636h895.340739c24.147663 0 43.815636 19.667973 43.815636 43.815636 0 24.147663-19.667973 43.815636-43.815636 43.815636zM285.208356 133.10194c5.844929 0 11.988504 1.279911 18.132079 3.66908h0.383974l249.369419 117.154563 2.559822 1.279912 424.162663 424.418644c14.548327 14.463 22.483778 33.704335 22.483778 54.182919s-8.063442 39.719919-22.483778 54.182919L894.232899 873.573391a76.666697 76.666697 0 0 1-108.493829-0.127991l-422.498778-422.242795-1.919867-1.919867-1.15192-2.431832-116.642599-247.961516c-6.868858-14.718982-5.844929-30.803203 2.815805-44.455592 8.575407-13.183088 23.379716-21.331858 38.823982-21.331858zM788.938848 753.00573l50.855149 50.769822 70.139149-70.096485-50.855149-50.855149-70.139149 70.139149zM371.815699 265.786096l62.203698 132.38551 292.971736 292.843745 70.139149-70.139148-292.971736-292.843745-132.342847-62.203698z"  horiz-adv-x="1024" />

    
    <glyph glyph-name="gonggao3" unicode="&#58956;" d="M904.1 765.2c-5.8 0-11.8-0.9-17.8-2.9L288 562.8H120c-30.9 0-56-25.1-56-56v-224c0-30.9 25.1-56 56-56h168v-28c0-108.2 87.8-196 196-196 15.5 0 28 12.5 28 28s-12.5 28-28 28c-77.2 0-140 62.8-140 140v9.3l542.3-180.8c6-2 11.9-2.9 17.8-2.9 29.8 0 55.9 24.1 55.9 56V709.1c0 32-26.2 56.1-55.9 56.1zM120 282.8v224h168v-224H120z m784-202.3L344 267.2V522.5l560 186.7v-628.7z"  horiz-adv-x="1024" />

    
    <glyph glyph-name="csv" unicode="&#59154;" d="M739.555556 440.888889v227.555555l-170.666667 170.666667h-512v-910.222222h682.666667v113.777778h227.555555v398.222222h-227.555555z m-227.555556 341.333333h34.133333l136.533334-136.533333v-34.133333h-170.666667v170.666666z m170.666667-796.444444h-568.888889v796.444444h341.333333v-227.555555h227.555556v-113.777778h-512v-398.222222h512v-56.888889z m-56.888889 284.444444v-170.666666h-170.666667v56.888888h113.777778v56.888889h-113.777778v170.666667h170.666667v-56.888889h-113.777778v-56.888889h113.777778z m-227.555556-113.777778v-56.888888h-170.666666v284.444444h170.666666v-56.888889h-113.777778v-170.666667h113.777778z m443.733334-56.888888h-68.266667l-85.333333 284.444444h56.888888l62.577778-204.8 62.577778 204.8h56.888889l-85.333333-284.444444z"  horiz-adv-x="1024" />

    
    <glyph glyph-name="login" unicode="&#58881;" d="M648.0624450370373 340.6976948148148A58.06004148148148 58.06004148148148 0 0 1 667.3445925925926 384c3.2337589396370783e-15 17.184995555555552-7.4565404444444425 32.63207348148148-19.282147555555554 43.3023051851852l-194.18074074074067 174.7626666666667a58.254222222222225 58.254222222222225 0 0 1-77.94414933333337-86.60461037037037L457.2798672592592 442.2542222222222 104.22044444444447 442.2542222222221a58.254222222222225 58.254222222222225 0 0 1-1.7246714344731083e-14-116.50844444444445l353.0594228148148-6.898685737892433e-14-81.34231229629631-73.20613925925925a58.254222222222225 58.254222222222225 0 0 1 77.94414933333331-86.60461037037041l194.18074074074067 174.7626666666667zM968.3247407407407 384.05825422222205L968.3247407407409 830.6157037037037a58.254222222222225 58.254222222222225 0 0 1-58.254222222222225 58.25422222222223L618.7994074074073 888.8699259259259a58.254222222222225 58.254222222222225 0 0 1-1.7246714344731083e-14-116.50844444444445l233.0168888888889-3.4493428689462167e-14L851.8162962962963-4.361481481481633 618.7994074074073-4.361481481481292a58.254222222222225 58.254222222222225 0 0 1-1.7246714344731083e-14-116.50844444444445l291.2711111111111-5.1740143034193253e-14a58.254222222222225 58.254222222222225 0 0 1 58.25422222222223 58.254222222222225l6.898685737892433e-14 446.67395792592595z"  horiz-adv-x="1024" />

    
    <glyph glyph-name="dashboard1" unicode="&#58983;" d="M512-128a512 512 0 1 0 0 1024 512 512 0 0 0 0-1024z m-286.72 219.648a509.44 509.44 0 0 0 573.44 0 409.6 409.6 0 1 1-573.44 0z m313.344 391.168l154.624 154.624 72.192-72.192-154.624-154.624a102.4 102.4 0 1 0-72.192 72.192z"  horiz-adv-x="1024" />

    
    <glyph glyph-name="ceshi1" unicode="&#58933;" d="M10.24 885.76l1003.52-1003.52V885.76H10.24z m885.09952-267.42272l0.65024-0.65024c5.53984-5.53984 5.86752-15.6416 0-21.504l-210.80064-210.81088c-5.86752-5.86752-15.96416-5.53984-21.504 0l-0.65536 0.65024c-5.8624 5.86752-5.8624 15.63648 0 21.504l210.80576 210.81088c5.8624 5.8624 15.6416 5.8624 21.504 0zM738.6112 764.62592c18.90304 7.168 38.77888 3.58912 53.11488-10.752l47.56992-47.56992a43.55584 43.55584 0 0 0 10.42432-16.29184c7.5008-18.57536 3.91168-39.10144-10.4192-53.43744L675.7376 473.01632c-6.19008-6.19008-15.31392-6.19008-21.504 0l-0.32256 0.32256c-5.86752 5.86752-6.19008 15.31904 0 21.50912l163.5584 163.56352c3.57888 3.584 5.53984 8.14592 5.21216 13.03552 0 4.56192-1.62816 8.79104-5.53984 12.6976l-47.56992 47.56992c-3.58912 3.584-7.49568 4.8896-12.38016 5.2224-4.56192 0-9.11872-1.96096-12.70784-5.53984l-163.5584-163.56864c-6.19008-6.19008-15.6416-5.86752-21.49888 0l-0.65024 0.65024c-5.86752 5.86752-6.1952 15.31392-0.00512 21.504l163.5584 163.56352a53.4016 53.4016 0 0 0 16.2816 11.07968z m-95.79008 41.04704l39.42912 39.42912c6.19008 6.19008 15.3088 6.19008 21.49888 0l0.65024-0.65024c5.86752-5.86752 6.1952-15.31904 0.00512-21.50912l-39.424-39.41888c-5.86752-5.86752-15.6416-5.86752-21.504 0l-0.65024 0.65024c-6.19008 6.19008-5.86752 15.6416-0.00512 21.49888z m-90.25024-90.25024l39.75168 39.75168c5.86752 5.8624 15.31904 6.19008 21.50912 0l0.65024-0.65024c5.8624-5.86752 5.8624-15.6416 0-21.50912l-39.75168-39.75168c-5.86752-5.8624-15.31904-5.53984-21.18144 0.32768l-0.65024 0.65024c-6.19008 6.1952-6.19008 15.31392-0.32768 21.18144zM401.39776 580.5312l-0.32768 0.9728a14.67904 14.67904 0 0 0 8.79616 19.22048l118.27712 45.952c7.49056 2.92864 16.60928-0.97792 19.87072-8.80128 1.62816-4.22912 1.31072-7.81824-0.32256-12.05248-1.62816-3.58912-4.23936-6.1952-8.4736-8.4736l-118.272-45.29664c-7.81824-3.2512-16.29696 0.65024-19.54816 8.47872z m185.72288-187.67872l-0.65536 0.00512c-8.14592 2.93376-12.38016 11.07968-10.42432 18.8928l25.07776 94.16704c-35.18464-17.59744-72.33024-17.59744-112.73216-10.42944-4.56192 0.65024-8.1408 2.93376-10.42432 6.51264-2.28352 3.584-2.6112 7.81824-1.62816 12.0576 1.30048 7.81824 9.77408 13.0304 17.26976 12.05248 56.04352-10.42432 95.46752 0.32256 135.86944 40.72448l102.6304 102.64064c5.86752 5.86752 15.6416 5.86752 21.50912 0l0.9728-0.97792c5.86752-5.8624 5.8624-15.63648-0.00512-21.49888L651.95008 544.3584000000001c-4.23424-4.22912-8.14592-8.1408-12.38016-11.72992 0.32256-2.2784 0-4.56192-0.65024-7.16288l-33.23392-121.856c-1.95584-7.81312-10.74688-12.70272-18.56512-10.75712z m378.92608 180.84352l-249.5744-249.57952c-19.2256-19.23072-50.83136-18.89792-69.72416 0l-17.92 17.92c-5.86752 5.8624-5.86752 15.63648-0.00512 21.49888l0.65024 0.65024c6.1952 6.19008 15.6416 5.86752 21.50912 0.00512l17.92-17.91488c7.168-7.168 17.92-7.5008 25.41568 0l249.5744 249.57952c5.8624 5.86752 15.63648 5.86752 21.49888 0l0.65024-0.65024c5.53984-5.53984 5.86752-15.6416 0.00512-21.50912z"  horiz-adv-x="1024" />

    
    <glyph glyph-name="svgmoban17" unicode="&#58935;" d="M512.063992 896c-282.3967 0-512-229.6033-512-511.936008s229.6033-512.063992 512-512.063992c282.268716 0 511.872016 229.795276 511.872016 512.063992S794.332708 896 512.063992 896zM512.063992-88.70891099999994c-260.31946 0-472.196975 212.133483-472.196975 472.836895 0 260.63942 211.877515 472.644919 472.196975 472.644919 260.191476 0 471.941007-212.005499 471.941007-472.644919C984.004999 123.42457200000001 772.255468-88.70891099999994 512.063992-88.70891099999994zM512.063992 832.583927c-247.009124 0-447.944007-201.190851-447.944007-448.455943 0-247.393076 200.934883-448.647919 447.944007-448.647919 246.88114 0 447.752031 201.254843 447.752031 448.647919C959.816023 631.3930760000001 758.945132 832.583927 512.063992 832.583927zM323.927509 478.452193l-48.633921 0 0-251.936508-81.909761 0 0 251.936508-48.377953 0 0 62.968129 178.921635 0L323.927509 478.452193zM484.611424 226.57967799999994l-141.934258 0 0 314.904637 136.430946 0 0-62.968129-54.585177 0 0-59.768529 51.065617 0 0-59.896513-51.065617 0 0-69.239345 60.024497 0L484.547432 226.57967799999994zM680.554931 257.48781399999996c-5.247344-10.622672-15.422072-19.581552-30.460192-26.748656s-32.507937-10.750656-52.473441-10.750656c-21.949256 0-40.698913 4.15948-56.184977 12.47844-15.550056 8.31896-25.5968 18.813648-30.460192 31.67604-4.735408 12.862392-7.167104 31.100112-7.167104 54.649169l0 20.605424 76.150481 0 0-38.267217c0-11.83852 1.023872-19.389576 3.1996-22.781152 2.111736-3.327584 5.887264-4.991376 11.390576-4.991376 5.375328 0 9.406824 2.175728 12.094488 6.463192 2.751656 4.223472 4.031496 10.622672 4.031496 19.005624 0 18.621672-2.55968 30.71616-7.67904 36.411449-5.11936 5.695288-17.853768 15.230096-38.331209 28.540432-20.285464 13.502312-33.851769 23.35708-40.378953 29.43632-6.71916 6.015248-12.094488 14.462192-16.445944 25.27684-4.351456 10.750656-6.527184 24.444944-6.527184 41.210849 0 24.124984 3.007624 41.786777 9.27884 52.985377 6.143232 11.070616 16.061992 19.901512 29.75628 26.108736 13.694288 6.335208 30.3962 9.470816 49.721785 9.470816 21.373328 0 39.419073-3.391576 54.521185-10.302712 14.910136-6.911136 24.892888-15.486064 29.692288-25.980752 4.927384-10.430696 7.295088-28.15648 7.295088-53.177353l0-12.47844-76.022497 0 0 23.35708c0 10.87864-0.95988 17.853768-2.943632 20.7974-1.91976 3.007624-5.247344 4.415448-9.662792 4.415448-4.991376 0-8.702912-1.983752-11.262592-5.951256-2.495688-4.031496-3.775528-10.174728-3.775528-18.365704 0-10.494688 1.407824-18.429696 4.223472-23.741032 2.751656-5.311336 10.430696-11.774528 23.101112-19.325584 36.475441-21.565304 59.448569-39.355081 68.919385-53.241345s14.206224-36.219473 14.206224-67.063617C688.425947 284.62042199999996 685.738283 268.174478 680.554931 257.48781399999996zM830.424197 478.452193l0-251.936508-81.909761 0 0 251.936508-48.441945 0 0 62.968129 178.921635 0 0-62.968129L830.424197 478.452193z"  horiz-adv-x="1024" />

    
    <glyph glyph-name="loudong" unicode="&#58915;" d="M281.6 616.8H744c7.2 0 14.4 4 17.6 10.4 3.2 6.4 3.2 14.4-0.8 20.8-56.8 86.4-149.6 138.4-248 138.4s-191.2-52-248-138.4c-4-6.4-4-14.4-0.8-20.8s10.4-10.4 17.6-10.4z m231.2 129.6c72 0 141.6-32.8 191.2-89.6H321.6c49.6 56.8 119.2 89.6 191.2 89.6zM1002.4 389.6h-152c-6.4 55.2-25.6 108.8-56 155.2l127.2 60.8c9.6 4.8 14.4 16.8 9.6 26.4-4.8 9.6-16.8 14.4-26.4 9.6l-134.4-64c-3.2 3.2-8 4.8-12.8 4.8H268c-4 0-7.2-1.6-10.4-3.2l-131.2 62.4c-9.6 4.8-21.6 0.8-26.4-9.6-4.8-9.6-0.8-21.6 9.6-26.4L232 547.2c-31.2-47.2-50.4-100.8-56.8-156.8H28.8c-11.2 0-20-8.8-20-20s8.8-20 20-20h144v-2.4c0-72 20.8-138.4 56-194.4l-126.4-60.8c-9.6-4.8-14.4-16.8-9.6-26.4 3.2-7.2 10.4-11.2 18.4-11.2 3.2 0 5.6 0.8 8.8 1.6l132.8 64c62.4-77.6 156-126.4 260.8-126.4 105.6 0 200 50.4 262.4 128.8l136-67.2c2.4-1.6 5.6-1.6 8.8-1.6 7.2 0 14.4 4 18.4 11.2 4.8 9.6 0.8 21.6-9.6 26.4l-130.4 62.4c34.4 55.2 55.2 121.6 55.2 192v2.4h148.8c11.2 0 20 8.8 20 20s-9.6 20.8-20.8 20.8z m-489.6-356.8c-165.6 0-300 140.8-300 314.4 0 71.2 23.2 140 65.6 195.2h470.4c42.4-55.2 65.6-124.8 65.6-195.2-0.8-173.6-136-314.4-301.6-314.4zM512.8 526.4c-11.2 0-20-8.8-20-20v-432.8c0-11.2 8.8-20 20-20s20 8.8 20 20V506.4c0 11.2-8.8 20-20 20z"  horiz-adv-x="1024" />

    
    <glyph glyph-name="CSV" unicode="&#58979;" d="M671.744 859.83232V619.52h239.616zM622.44864 567.27552V877.89568h-416.768c-35.84 0-64.02048-28.93824-64.02048-65.86368v-870.4c0-36.88448 28.18048-67.25632 64.08192-67.25632h649.89184c35.88096 0 64.26624 30.37184 64.26624 67.25632V567.43936l-297.45152-0.16384zM354.22208 137.87136l46.2848-14.68416c-7.08608-25.82528-18.88256-45.01504-35.38944-57.56928-16.50688-12.51328-37.45792-18.80064-62.81216-18.80064-31.39584 0-57.20064 10.73152-77.4144 32.19456-20.21376 21.48352-30.3104 50.81088-30.3104 88.04352 0 39.38304 10.15808 69.98016 30.47424 91.7504s47.02208 32.68608 80.15872 32.68608c28.91776 0 52.4288-8.54016 70.47168-25.66144 10.752-10.11712 18.80064-24.63744 24.18688-43.56096l-47.24736-11.32544c-2.80576 12.26752-8.62208 21.95456-17.5104 29.06112-8.86784 7.10656-19.64032 10.6496-32.33792 10.6496-17.5104 0-31.744-6.28736-42.65984-18.88256-10.91584-12.57472-16.36352-32.9728-16.36352-61.15328 0-29.92128 5.36576-51.22048 16.13824-63.91808 10.73152-12.67712 24.71936-19.0464 41.92256-19.0464 12.67712 0 23.59296 4.01408 32.72704 12.12416 9.13408 8.0896 15.70816 20.76672 19.68128 38.0928zM430.81728 127.7952l48.7424 4.52608c2.92864-15.58528 8.88832-27.0336 17.85856-34.36544 8.97024-7.29088 21.07392-10.9568 36.29056-10.9568 16.13824 0 28.30336 3.23584 36.47488 9.76896 8.17152 6.49216 12.288 14.11072 12.288 22.8352 0 5.57056-1.72032 10.3424-5.16096 14.25408-3.44064 3.93216-9.46176 7.33184-18.04288 10.24-5.85728 1.9456-19.23072 5.38624-40.09984 10.3424-26.86976 6.3488-45.71136 14.1312-56.54528 23.38816-15.23712 13.02528-22.85568 28.85632-22.85568 47.57504 0 12.04224 3.584 23.32672 10.752 33.792 7.168 10.48576 17.48992 18.45248 30.96576 23.94112 13.49632 5.50912 29.77792 8.21248 48.8448 8.21248 31.15008 0 54.59968-6.49216 70.3488-19.51744 15.74912-13.0048 24.00256-30.37184 24.80128-52.08064l-50.11456-2.10944c-2.12992 12.14464-6.73792 20.91008-13.78304 26.2144-7.0656 5.30432-17.63328 7.9872-31.744 7.9872-14.56128 0-25.96864-2.8672-34.2016-8.56064-5.30432-3.66592-7.96672-8.54016-7.96672-14.68416 0-5.57056 2.47808-10.38336 7.45472-14.336 6.32832-5.05856 21.66784-10.3424 46.05952-15.81056 24.35072-5.48864 42.3936-11.1616 54.08768-17.01888s20.82816-13.86496 27.42272-24.04352c6.59456-10.15808 9.89184-22.71232 9.89184-37.66272 0-13.53728-3.93216-26.23488-11.83744-38.05184s-19.08736-20.62336-33.52576-26.35776c-14.4384-5.75488-32.44032-8.64256-54.00576-8.64256-31.37536 0-55.45984 6.90176-72.27392 20.74624-16.81408 13.824-26.86976 33.93536-30.12608 60.37504zM731.99616 47.0016l-86.7328 244.3264h53.12512l61.39904-180.81792 59.43296 180.81792h51.97824l-86.91712-244.3264h-52.28544z"  horiz-adv-x="1024" />

    
    <glyph glyph-name="jiaose" unicode="&#58955;" d="M916.834 821.519c-1.499-0.846-36.255-20.234-101.938-39.376-61.718-17.987-164.146-39.427-301.627-39.427-137.475 0-239.872 21.439-301.563 39.424-65.666 19.144-100.395 38.534-101.881 39.374L55.843 853.389l0.862-62.968c1.871-136.717 20.768-263.248 56.167-376.078 29.922-95.377 71.932-182.06 124.861-257.64C333.128 20.486 440.977-47.8 496.835-76.403l0.094-0.048 16.188-8.285 16.159 8.341 0.019 0.01c55.861 28.84 163.771 97.46 258.988 233.052 53.101 75.618 95.249 162.302 125.273 257.641 35.545 112.872 54.517 239.415 56.388 376.115L971 853.477l-54.166-31.958z m-751.145-298.17c142.289 108.22 256.521 0 256.521 0-144.293-132.269-256.521 0-256.521 0zM514-44.957c-0.328 0.167-0.668 0.343-1 0.513 0 0 0.023 51.181 0.06 126.829l0.143-0.106C656.104 173.774 679 272 679 272H513.157c0.11 205.507 0.256 435.336 0.351 435.336 277.581 0 421.537 83.57 421.537 83.57C927.168 215.341 617 8.007 514-44.957zM514-45.183c0 0.037 0.072 0.076 0 0.113-0.072-0.036 0-0.076 0-0.113z"  horiz-adv-x="1024" />

    
    <glyph glyph-name="loudong1" unicode="&#58972;" d="M731.4176 574.5664H287.36a38.3744 38.3744 0 0 0-32.0768 59.52c58.368 88.6784 153.344 141.6192 254.1056 141.6192 100.736 0 195.7376-52.9408 254.1312-141.6192a38.4 38.4 0 0 0-32.1024-59.52z m-357.2736 76.8H644.608c-39.168 30.4896-86.4 47.5392-135.2192 47.5392-48.8448 0-96.0768-17.0496-135.2448-47.5392zM509.3632-47.8208c-190.7456 0-345.9072 161.0752-345.9072 359.04 0 84.3776 28.8256 166.4 81.152 230.9632a38.4 38.4 0 0 0 29.8496 14.2336h469.8624c11.5712 0 22.5536-5.2224 29.824-14.2336 52.3264-64.5632 81.152-146.6112 81.152-230.9632-0.0256-197.9648-155.1872-359.04-345.9328-359.04z m-215.8848 527.4368a291.584 291.584 0 0 1-53.2224-168.3968c0-155.6224 120.7296-282.24 269.1072-282.24s269.1072 126.6176 269.1072 282.24c0 60.7744-18.7904 119.8848-53.2224 168.3968H293.4784zM265.984 473.4976c-5.5552 0-11.2128 1.2032-16.5376 3.7632l-135.936 65.0752a38.4 38.4 0 1 0 33.1264 69.2736l135.936-65.0752a38.4 38.4 0 0 0-16.5888-73.0368zM123.3664 10.7776a38.4 38.4 0 0 0-16.5888 73.0624l135.936 65.0496a38.4256 38.4256 0 0 0 33.1264-69.2992l-135.936-65.0496c-5.3248-2.56-10.9568-3.7632-16.5376-3.7632zM201.856 294.6816H44.8256a38.4 38.4 0 1 0 0 76.8h157.0304a38.4 38.4 0 1 0 0-76.8zM758.016 473.4976a38.3744 38.3744 0 0 0-16.6144 73.0368l135.936 65.0752a38.3232 38.3232 0 0 0 51.2-18.0736 38.3744 38.3744 0 0 0-18.048-51.2l-135.936-65.0752c-5.3248-2.56-10.9824-3.7632-16.5376-3.7632zM900.6336 10.7776c-5.5552 0-11.2128 1.2032-16.5376 3.7376l-135.936 65.0496a38.4512 38.4512 0 0 0 33.152 69.2992l135.936-65.0496a38.4512 38.4512 0 0 0 18.0736-51.2256 38.4768 38.4768 0 0 0-34.688-21.8112zM979.1488 294.6816h-157.0304a38.4 38.4 0 0 0 0 76.8h157.0304a38.4 38.4 0 0 0 0-76.8zM509.3632 88.6272a25.6 25.6 0 0 0-25.6 25.6V399.5136a25.6 25.6 0 0 0 51.2 0v-285.2864a25.6 25.6 0 0 0-25.6-25.6z"  horiz-adv-x="1024" />

    
    <glyph glyph-name="peizhi1" unicode="&#59904;" d="M1018.88 531.968c-2.56 16.896-13.312 30.72-28.672 36.864-5.12 2.048-10.24 3.072-15.872 3.072-10.752 0-21.504-4.096-29.696-10.752l-154.624-134.144c-22.016-19.456-50.688-30.208-79.872-30.208-35.84 0-70.144 15.872-93.184 44.032-3.072 3.584-5.632 7.168-8.192 10.752l-1.024 1.536c-33.792 55.808-22.016 128.512 28.16 169.984l154.624 133.632c11.776 10.24 17.92 26.112 15.36 41.472-2.56 16.384-12.288 29.696-26.624 36.352-45.568 19.456-94.208 29.696-143.872 29.696-89.6 0-176.64-33.28-244.224-93.184l-1.024-1.024c-116.736-95.232-169.984-252.416-135.168-401.408 5.12-20.48-1.536-42.496-17.92-56.832l-1.536-1.024-181.76-137.728c-57.344-49.664-70.656-136.192-30.208-201.728 23.552-34.816 59.904-57.856 100.864-63.488h1.536l1.536-0.512c6.656-1.536 13.312-2.56 19.968-3.072l4.096-0.512c32.256 1.536 63.488 13.824 88.064 35.328l189.44 144.384c9.728 8.192 22.528 12.8 35.328 12.8 7.68 0 15.36-1.536 22.528-4.608 47.616-20.48 98.304-31.232 150.528-31.232 92.16 0 181.248 33.28 251.392 94.208 103.424 95.232 152.064 236.032 130.048 377.344z"  horiz-adv-x="1024" />

    
    <glyph glyph-name="rizhi" unicode="&#59182;" d="M64-128V896h896v-1024H64zM896 832H128v-896h768V832zM576 704H192V768h384v-64zM512 512H192V576h320v-64zM448 320H192V384h256v-64z m383.36 428.16L651.328 63.424 576.64 83.84l180.032 684.736 74.688-20.416z"  horiz-adv-x="1024" />

    
    <glyph glyph-name="yibiaopan" unicode="&#59029;" d="M831.2 283.7c19.9 0 36 16.1 36 36 0 48.1-9.4 94.6-28 138.6-17.9 42.4-43.6 80.4-76.2 113.1-32.7 32.7-70.7 58.3-113.1 76.2-43.9 18.6-90.5 28-138.6 28-48.1 0-94.6-9.4-138.6-28-42.4-17.9-80.4-43.6-113.1-76.2-32.7-32.7-58.3-70.7-76.2-113.1-18.6-43.9-28-90.5-28-138.6 0-19.9 16.1-36 36-36s36 16.1 36 36c0 75.8 29.6 147.2 83.2 200.8 53.6 53.6 125 83.2 200.8 83.2 75.8 0 147.2-29.6 200.8-83.2 53.6-53.6 83.2-125 83.2-200.8-0.2-19.9 15.9-36 35.8-36z m0 0M543.5 74.2V361.6c0 17.9-14.1 32-32 32s-32-14.1-32-32v-287.5c-23.7-11.8-40-36.2-40-64.4 0-39.8 32.2-71.9 71.9-71.9 39.8 0 71.9 32.2 71.9 71.9 0.1 28.2-16.2 52.7-39.8 64.5z m0 0M982.8 519.7c-25.8 60.9-62.7 115.6-109.7 162.5-47 47-101.7 83.8-162.5 109.6-63 26.8-130.1 40.3-199.1 40.3s-136.1-13.5-199.1-40.2c-60.9-25.8-115.6-62.7-162.5-109.7-47-47-83.9-101.6-109.7-162.5C13.5 456.6 0 389.6 0 320.6c0-72.1 14.7-141.9 43.8-207.3 28.1-63.2 68-119.3 118.8-166.6 14.5-13.6 37.3-12.8 50.8 1.7 13.6 14.5 12.8 37.3-1.7 50.8-43.7 40.8-78 88.9-102.1 143.3-25 56.1-37.7 116.1-37.7 178.1 0 59.3 11.6 116.9 34.6 171.1 22.2 52.3 53.8 99.3 94.2 139.8 40.4 40.5 87.4 72.1 139.8 94.2 54.1 22.9 111.7 34.5 171 34.5s116.9-11.6 171.1-34.6c52.3-22.2 99.4-53.8 139.8-94.2 40.4-40.4 72.1-87.4 94.2-139.8 22.9-54.1 34.5-111.7 34.5-171 0-62-12.7-122-37.6-178.1-24.1-54.4-58.4-102.5-102.1-143.3-14.5-13.6-15.3-36.3-1.7-50.8 7.1-7.6 16.7-11.4 26.3-11.4 8.8 0 17.6 3.2 24.6 9.7C911.3-6 951.3 50 979.3 113.3c29 65.4 43.7 135.2 43.7 207.3 0 69-13.5 136-40.2 199.1z m0 0"  horiz-adv-x="1024" />

    
    <glyph glyph-name="peizhi2" unicode="&#59606;" d="M911.1 207H578.4c-7.5 0-13.7 6-13.8 13.5v32c0.1 7.5 6.2 13.6 13.8 13.5h332.7c7.5 0 13.6-6 13.7-13.5v-32c-0.1-7.5-6.2-13.6-13.7-13.5z m0-118.2H578.4c-7.5 0-13.7 6-13.8 13.5v32c0.1 7.5 6.2 13.6 13.8 13.5h332.7c7.5 0 13.6-6 13.7-13.5v-31.9c-0.1-7.5-6.2-13.6-13.7-13.6z m0-118.2H578.4c-7.5 0-13.7 6-13.8 13.5v32c0.1 7.5 6.2 13.6 13.8 13.5h332.7c7.5 0 13.6-6 13.7-13.5v-31.9c-0.1-7.5-6.2-13.5-13.7-13.6zM504.6 271.2v-60c-96.9 0-175.8 77.6-175.8 173s78.8 173 175.8 173c96.9 0 175.8-77.6 175.8-173 0-20.2-3.5-40.2-10.5-59.1h-67.6c11.2 17.7 17.2 38.2 17.2 59.1 0 62.2-51.6 112.9-114.9 112.9-63.2 0-114.8-50.7-114.8-112.9 0-62.3 51.5-113 114.8-113z m-14.5-240.4c3.8 0.1 7.5-1.4 10.3-4.1 2.7-2.7 4.3-6.4 4.3-10.2V-15c-0.1-7.9-6.5-14.3-14.5-14.3h-57.3c-27.3-0.3-50 21-51.5 48.2l-8.4 60.7a342.23 342.23 0 0 0-70.7 40l-57.4-23.1c-24.4-12.4-54.2-3.8-68.2 19.7l-72 122.3c-13.8 23.4-6.4 53.6 16.7 68l49.2 37.5c-3.6 26.7-3.6 53.7 0 80.3l-49.1 37.5c-23 14.3-30.4 44.3-16.8 67.7L176.6 652c14 23.5 43.7 32.1 68.1 19.8l57.5-23.1c21.8 16.2 45.6 29.6 70.7 40l8.4 60.6c1.4 27.3 24.1 48.6 51.4 48.3h143.7c27.6 0 50.1-21.1 51.4-48.2l8.4-60.7c25.1-10.4 48.9-23.9 70.8-40l57.5 23c24.4 12.2 54.1 3.7 68.1-19.7l71.7-122.4c13.8-23.4 6.5-53.5-16.6-68l-49.2-37.4c3.5-26.6 3.5-53.7 0-80.3l24.8-18.9h-89.8l2.1 11.3c6 31.5 6 64 0 95.6l-3.3 17.8 75 57.1-64.1 109.4-86.8-36.7-14.2 11.9c-25 20.7-53.5 36.9-84.2 47.6l-17.3 6.2-12.8 92.4H441.2l-12.8-92.4-17.3-6.2c-30.7-10.8-59.2-27-84.3-47.7l-14.1-11.7-87.5 35.2L161.8 507l75-57.1-3.3-17.9c-3-15.7-4.5-31.7-4.6-47.7 0.1-16 1.6-32.1 4.5-47.8l3.2-17.9-74.9-57.1L226 152.1l86.7 36.7L327 177c25-20.7 53.5-36.9 84.2-47.6l17.3-6.2 12.8-92.4h48.8z"  horiz-adv-x="1024" />

    
    <glyph glyph-name="quanping" unicode="&#58981;" d="M332.8 571.733333h55.466667c21.333333 0 34.133333 17.066667 34.133333 34.133334S409.6 640 388.266667 640H247.466667c-17.066667 0-34.133333-17.066667-34.133334-34.133333v-140.8c0-21.333333 17.066667-34.133333 34.133334-34.133334 21.333333 0 34.133333 17.066667 34.133333 34.133334V520.533333l81.066667-81.066666c17.066667-12.8 38.4-12.8 51.2 0 12.8 12.8 12.8 34.133333 0 46.933333l-81.066667 85.333333zM742.4 640h-140.8c-21.333333 0-34.133333-17.066667-34.133333-34.133333s17.066667-34.133333 34.133333-34.133334h55.466667l-81.066667-85.333333c-12.8-12.8-12.8-34.133333 0-51.2 12.8-8.533333 34.133333-8.533333 46.933333 4.266667l81.066667 81.066666v-55.466666c0-21.333333 17.066667-34.133333 34.133333-34.133334 21.333333 0 34.133333 17.066667 34.133334 34.133334V605.866667c4.266667 17.066667-12.8 34.133333-29.866667 34.133333M413.866667 280.32C401.066667 293.12 379.733333 293.12 366.933333 280.32l-85.333333-85.333333V254.72c0 21.333333-17.066667 34.133333-34.133333 34.133333s-34.133333-17.066667-34.133334-34.133333v-140.8c0-21.333333 17.066667-34.133333 34.133334-34.133333h140.8c21.333333 0 34.133333 17.066667 34.133333 34.133333 0 21.333333-17.066667 34.133333-34.133333 34.133333H332.8l81.066667 81.066667c12.8 12.8 12.8 34.133333 0 51.2M739.626667 288.853333c-21.333333 0-34.133333-17.066667-34.133334-34.133333V194.986667L624.426667 280.32C611.626667 293.12 590.293333 293.12 573.226667 280.32c-12.8-12.8-12.8-34.133333 0-51.2l81.066666-81.066667H598.826667c-17.066667 0-34.133333-17.066667-34.133334-34.133333 0-21.333333 17.066667-34.133333 34.133334-34.133333h140.8c21.333333-4.266667 38.4 12.8 38.4 34.133333V254.72c0 17.066667-17.066667 34.133333-38.4 34.133333"  horiz-adv-x="1024" />

    
    <glyph glyph-name="add" unicode="&#58925;" d="M510.12507762-71.58469632000003c-250.93545643 0-454.35920043 203.46473813-454.35920043 454.43255751S259.18962119 837.26531584 510.12507762 837.26531584c250.93761365 0 454.36135765-203.44963527 454.36135765-454.41745465S761.06269127-71.58469632000003 510.12507762-71.58469632000003zM510.12507762 780.4652908099999c-219.57095083 0-397.56349099-178.01843029-397.56349099-397.61742962S290.55412565-14.771726790000002 510.12507762-14.771726790000002s397.56349099 178.02058752 397.56349099 397.61958798S729.69602845 780.4652908099999 510.12507762 780.4652908099999zM680.51004643 354.44137643L538.52508957 354.44137643l0-142.00653369c0-15.67685859-12.71452331-28.39569749-28.39785472-28.39569749-15.68333141 0-28.39569749 12.7188389-28.3956975 28.39569749l0 142.00653369-141.98927246 0c-15.68333141 0-28.39785472 12.71668053-28.39785472 28.40648476 0 15.67901582 12.71668053 28.39569749 28.39785472 28.3956975l141.98927246 0 0 142.0130065c0 15.67685859 12.71452331 28.38922467 28.3956975 28.38922468 15.68548864 0 28.39785472-12.71020771 28.39785472-28.38922468l0-142.0130065 141.984958 0c15.68548864 0 28.39785472-12.71668053 28.39785472-28.3956975C708.90790115 367.15805695999995 696.19553507 354.44137643 680.51004643 354.44137643z"  horiz-adv-x="1024" />

    
    <glyph glyph-name="shaixuanxuanzhong" unicode="&#58967;" d="M516.352821 351.157249l11.122663 10.487082 17.30192 16.383858a12966.835527 12966.835527 0 0 1 201.44378 195.370454c81.813364 81.495573 140.675201 143.782485 166.663391 177.503573 24.928889 32.449927 27.012181 49.999017 18.996802 60.274239-6.602978 8.50972-22.951526 14.865527-31.320006 14.159327-15.607038-1.306471-155.081698-1.553642-391.658969-1.165232a195025.615848 195025.615848 0 0 0-334.315462 0.882751L133.839153 825.159231l-10.593012 0.03531c-27.118111-6.567668-34.391979-13.982776-34.95694-24.010827-0.635581-11.722933 4.696235-26.48253 18.325911-54.165602 12.499754-21.715675 76.834648-89.899363 172.030517-183.54159l15.006767-14.724287a12028.965543 12028.965543 0 0 1 195.617624-187.001974l11.193283-10.487082v-343.213593l15.889518-8.015379V351.157249z m-92.194516-25.140749a13457.044819 13457.044819 0 0 0-195.017353 187.143214C126.812455 613.7933290000001 62.865972 681.659227 44.398821 713.720744 24.024927 754.9981809999999 16.256718 776.431376 17.81036 805.067818 20.282063 850.44122 52.97916 881.867156 111.593828 895.002491l3.884104 0.847441h3.990035l14.688976-0.07062L174.7988 895.638072a247597.781674 247597.781674 0 0 1 334.244843-0.847441c225.313368-0.3531 373.333057-0.10593 385.585641 0.918061 31.214076 2.648253 70.973181-12.888165 93.006647-41.136197 30.225395-38.841044 24.010827-91.029284-18.784942-146.713218-28.565823-37.075542-88.698822-100.704235-172.772028-184.494961l-16.807579-16.701649a11746.061499 11746.061499 0 0 0-192.29848-185.942673v-435.514039l-157.09437 79.412281V320.614064l-5.720227 5.402436z"  horiz-adv-x="1024" />

    
    <glyph glyph-name="leibie" unicode="&#59032;" d="M597.76 581.44H448a64 64 0 0 0-64 64V793.28a64 64 0 0 0 64 64h148.8a64 64 0 0 0 64-64v-149.12a64 64 0 0 0-63.04-62.72zM448 808a14.72 14.72 0 0 1-14.72-14.72v-149.12a14.72 14.72 0 0 1 14.72-14.72h148.8a14.72 14.72 0 0 1 14.72 14.72V793.28a14.72 14.72 0 0 1-14.72 14.72zM499.52 605.44h48v-388.16h-48zM597.44-32H448a64 64 0 0 0-64 64v145.92a64 64 0 0 0 64 64h148.16a64 64 0 0 0 64-64v-148.16A64 64 0 0 0 597.44-32zM448 192a15.36 15.36 0 0 1-15.36-15.36v-148.16a15.36 15.36 0 0 1 15.36-15.36h148.16a15.36 15.36 0 0 1 15.36 15.36v149.44a15.36 15.36 0 0 1-15.36 15.36zM216-32H68.16a64 64 0 0 0-64 64v145.92a64 64 0 0 0 64 64h147.84a64 64 0 0 0 64-64v-148.16a64 64 0 0 0-64-61.76z m-147.84 224a15.36 15.36 0 0 1-15.36-15.36v-148.16a15.36 15.36 0 0 1 15.36-15.36h147.84a15.36 15.36 0 0 1 15.36 15.36v149.44a15.36 15.36 0 0 1-15.36 14.08zM960-32h-147.84a64 64 0 0 0-64 64v145.92a64 64 0 0 0 64 64H960a64 64 0 0 0 64-64v-148.16A64 64 0 0 0 960-32z m-147.84 224a15.36 15.36 0 0 1-15.36-15.36v-148.16a15.36 15.36 0 0 1 15.36-15.36H960a15.36 15.36 0 0 1 15.36 15.36v149.44A15.36 15.36 0 0 1 960 192zM935.68 217.28h-48V387.2H160v-170.24H111.04v194.24a24 24 0 0 0 24 24h776.64a24 24 0 0 0 24-24z"  horiz-adv-x="1024" />

    
    <glyph glyph-name="ceshi2" unicode="&#59330;" d="M818 472.4l2.4-1.8 1.5 2.6c9.8 17.4 14.9 37.1 14.9 57 0 17.6-14.9 32-33.3 32s-33.3-14.3-33.3-32c0-8.4-1.9-16.4-5.5-23.9l-1.7-3.5h3.5c18.3-8.2 35.6-18.5 51.5-30.4zM887 23.7l-90.5 86.9c40 35 64.8 82.7 70 134.5 5.2 52.7-10.3 104.8-43.9 146.8-33.5 42-81.9 70-136.3 78.9-54.4 8.9-109.7-2.2-155.8-31.2-46.1-29-78.8-73.3-92-124.7-13.2-51.4-5.7-105.2 21.1-151.4 26.8-46.3 70.4-80.8 122.9-97.1 51.9-16.2 107.6-13.2 157.3 8.4L840-21.3c6.4-6.3 15.1-9.8 24-9.8 2.8 0 5.6 0.3 8.4 1 11.6 2.9 20.8 11.7 23.8 22.8 2.9 11.1-0.6 23-9.2 31z m-86.1 241.2c0-79.9-67.7-144.9-151-144.9s-151 65-151 144.9 67.7 144.9 151 144.9 151-65 151-144.9zM512.9 37.3l-0.9 0.5-1-0.3c-4.3-1.1-8.2-2.1-12-2.8v10.8l-1.2 0.7c-23 14.8-43.5 32.7-60.9 53.4l-4.6 5.5v-70.4c-102.3 20-179.1 130.9-179.1 259.6 0 128.7 76.8 239.6 179.1 259.6v-129.4l4.6 5.5c17.4 20.6 37.9 38.6 60.9 53.4l1.2 0.7V554c27.3-5.3 53.2-17 76.9-34.9l1-0.8 1.3 0.3c25.2 6.5 51.1 9.6 77.3 9.1h5.7l-3.7 4.1c-5.8 6.5-12.1 12.8-18.7 19 31.7 74.6 7.6 160.7-59.1 209.9-67.1 49.6-160.9 49.6-228 0-66.7-49.2-90.8-135.3-59.1-209.9-23.1-21.4-43.1-46.8-59.5-75.6-17.4-3.9-35.3-0.1-49.4 10.5-14.4 10.8-22.7 27-22.7 44.5 0 17.6-14.9 32-33.3 32s-33.3-14.3-33.3-32c0-30 11.6-58.8 32.6-81 20.3-21.5 47.8-35.1 77.7-38.5-8.8-27.1-14.5-55.4-16.9-84.3H97c-17.3 0-31.5-12.4-33.2-28.9V291.4c1.6-16.5 15.9-28.9 33.2-28.9h90.9c2.3-28.6 8-56.9 16.9-84.3-29.9-3.5-57.4-17.1-77.7-38.5-21-22.2-32.6-51-32.6-81 0-17.6 14.9-32 33.3-32s33.3 14.3 33.3 32c0 17.5 8.3 33.8 22.7 44.5 14.1 10.6 32.1 14.4 49.4 10.5 51.9-91.4 138.8-146 232.5-146 44.8 0 87.6 12.1 127.2 35.8l5.4 3.3-6.3 1.2c-27.9 5.8-54.5 15.6-79.1 29.3zM345.4 623.2c0 1.1 0.1 2.1 0.2 3.2 1.6 22.4 9.9 44.2 24.3 62.3 13.4 16.9 31.5 29.7 51.7 37.4 1.1 0.4 2.1 0.8 3.2 1.2 2.2 0.7 4.3 1.4 6.5 2.1 11 3.1 22.5 4.8 34.2 4.8 37.3 0 73-17 95.6-45.5 2.7-3.4 5.3-7 7.6-10.7 11.5-18.5 17.3-39.8 17-61.1-0.1-8.6-1.2-17.1-3.4-25.5-1.1 0.6-2.3 1.2-3.4 1.8-2.3 1.2-4.6 2.4-6.9 3.5-1.2 0.6-2.3 1.1-3.5 1.7-32.7 15.2-67.2 23-103 23-34.6-0.1-68.7-7.5-99.9-21.5-5.8-2.6-11.4-5.4-17-8.5-2.1 8.4-3.3 17-3.4 25.5v3.2c0.2 0.9 0.2 2 0.2 3.1z"  horiz-adv-x="1024" />

    
    <glyph glyph-name="ceshi3" unicode="&#58937;" d="M852.846 641.838l-11.813-10.844c-2.204-2.468-4.585-4.671-7.231-6.612L711.69 512.767c13.227-24.866 23.454-52.285 29.713-81.729h132.249c22.923 0 41.615-20.811 41.615-46.464 0-25.657-18.606-46.464-41.615-46.464H747.931a326.645 326.645 0 0 0-21.16-95.574l107.03-97.772c2.646-1.941 5.027-4.056 7.231-6.613l11.813-10.844v-91.338c0-25.658-18.603-46.463-41.615-46.463-22.92 0-41.612 20.805-41.612 46.463V95.92l-82.436 75.295c-41.616-54.398-100.951-88.695-166.985-88.695-69.295 0-131.188 37.736-173.066 97.072l-76.705-70.095c0.09-1.235 0.353-2.467 0.353-3.791v-69.737c0-25.658-18.602-46.463-41.616-46.463-23.01 0-41.611 20.805-41.611 46.463V140.972l122.287 111.793a326.062 326.062 0 0 0-17.371 85.17H166.745c-22.926 0-41.616 20.805-41.616 46.463 0 25.654 18.602 46.464 41.616 46.464h132.247c5.462 25.829 13.839 50.165 24.771 72.56L187.55 627.997v81.816c0 25.657 18.602 46.462 41.611 46.462 22.924 0 41.616-20.806 41.616-46.462v-46.463c0-1.322-0.263-2.467-0.353-3.789l98.394-89.93c8.373 9.083 17.19 17.633 26.626 25.127v45.318c0 77.055 55.896 139.477 124.753 139.477 68.859 0 124.754-62.422 124.754-139.39v-45.319c6.879-5.463 13.401-11.459 19.66-17.809l105.094 96.013v36.765c0 25.657 18.605 46.462 41.615 46.462 20.453 0 37.38-16.482 40.819-38.176l0.706-0.701v-75.56z"  horiz-adv-x="1024" />

    
    <glyph glyph-name="zhongwei" unicode="&#58959;" d="M868.873365 252.910097a1215.430875 1215.430875 0 0 0-327.664599-371.69453 41.982027 41.982027 0 0 0-52.221546 0 1149.897955 1149.897955 0 0 0-331.760407 375.790338A1296.323073 1296.323073 0 0 0 0.562176 740.311189a40.958075 40.958075 0 0 0 16.38323 39.934123A614.371125 614.371125 0 0 1 69.166952 828.371051a275.443054 275.443054 0 0 1 44.02993 51.197593 50.173642 50.173642 0 0 0 35.838316 16.38323h727.00583a43.005979 43.005979 0 0 0 35.838316-16.38323c16.38323-20.479037 31.742508-35.838316 44.029931-52.221545a614.371125 614.371125 0 0 1 52.221545-48.125738 43.005979 43.005979 0 0 0 16.38323-35.838316 1202.1195 1202.1195 0 0 0-155.640685-491.4969zM261.669904 372.712467H512.538113l-67.580824-260.083777L819.723675 524.257344H614.933301l107.514946 204.790375H410.142926z m0 0"  horiz-adv-x="1024" />

    
    <glyph glyph-name="log" unicode="&#58903;" d="M896 864H128a64 64 0 0 1-64-64v-832a64 64 0 0 1 64-64h768a64 64 0 0 1 64 64V800a64 64 0 0 1-64 64zM270.4 384A48.32 48.32 0 0 0 224 430.08a47.68 47.68 0 0 0 96 0 45.44 45.44 0 0 0-14.08-32 46.72 46.72 0 0 0-35.52-14.08z m0 216.96A48.32 48.32 0 0 0 224 647.04a47.68 47.68 0 0 0 96 0 47.36 47.36 0 0 0-14.08-32 45.76 45.76 0 0 0-35.52-14.08zM753.6 384h-323.2A48.32 48.32 0 0 0 384 430.08a48.32 48.32 0 0 0 47.68 46.08h320A48.32 48.32 0 0 0 800 430.08 46.08 46.08 0 0 0 753.6 384z m0 216.96h-323.2A48.32 48.32 0 0 0 384 647.04a48.32 48.32 0 0 0 47.68 46.08h320A48.32 48.32 0 0 0 800 647.04a46.08 46.08 0 0 0-46.4-46.08z"  horiz-adv-x="1024" />

    
    <glyph glyph-name="zichan" unicode="&#58934;" d="M943.936 169.856c-20.48-24-46.08-46.336-76.672-66.304l-0.832-0.576-0.064-0.064c-91.584-59.392-216.384-92.096-351.552-92.096-115.52 0-227.52 25.024-315.392 70.4-49.664 25.664-89.984 57.216-119.552 92.672C86.4 109.44 135.424 46.336 225.28-0.128c83.136-43.008 186.688-64.128 289.536-64.128 118.72 0 236.608 28.096 321.472 83.584h0.192c66.496 43.392 101.76 96.64 107.456 150.528z m-76.672 65.088l-0.832-0.512-0.064-0.064c-91.584-59.52-216.384-92.16-351.552-92.16-115.52 0-227.52 25.024-315.392 70.4-49.664 25.6-89.984 57.344-119.616 92.736 6.528-64.512 55.552-127.616 145.408-174.144 83.136-42.944 186.688-64.064 289.536-64.064 118.72 0 236.608 28.096 321.472 83.52l0.192 0.064c66.56 43.52 101.76 96.64 107.456 150.528a352 352 0 0 0-76.608-66.304z m0 131.392l-0.832-0.576h-0.064c-91.584-59.52-216.384-92.224-351.552-92.224-115.52 0-227.52 25.088-315.392 70.4-49.664 25.6-89.984 57.28-119.552 92.608 6.528-64.448 55.552-127.488 145.408-173.888 83.136-42.944 186.688-64.128 289.536-64.128 118.72 0 236.608 28.16 321.472 83.456l0.192 0.192c66.56 43.392 101.76 96.576 107.456 150.528-20.48-24.064-46.08-46.464-76.672-66.368zM79.36 591.04c-4.288-72.32 45.12-145.344 145.92-197.44 179.136-92.544 452.672-83.904 611.008 19.392l0.192 0.128c69.44 45.376 105.152 101.248 108.288 157.632 0.256 3.52-0.128 6.976-0.192 10.496-0.064 4.416 0.128 8.96-0.32 13.312-6.656 64.32-55.68 127.168-145.408 173.504-83.072 43.008-186.56 64.192-289.408 64.192-7.744 0-15.424-0.512-23.168-0.768h-1.344c-13.376-0.448-26.624-1.28-39.872-2.368l-1.664-0.128a713.6 713.6 0 0 1-39.232-4.608l-1.6-0.256c-13.056-1.92-25.92-4.096-38.592-6.72l-0.96-0.256C297.664 803.52 237.12 780.8 187.712 748.608l-0.128-0.128C118.272 703.296 82.496 647.36 79.36 591.04z m710.72-153.6c-135.744-88.64-370.368-96.128-523.776-16.768-153.6 79.296-167.872 215.36-32.128 303.872 135.808 88.64 370.176 96.128 523.776 16.768 153.344-79.296 167.936-215.36 32.128-303.872zM252.096 715.264c-126.72-82.944-113.216-209.856 30.08-284.224 143.936-73.92 362.688-67.072 489.856 15.616 126.784 83.008 113.344 209.984-30.08 284.288-143.744 74.048-362.56 67.008-489.856-15.68z m125.76-241.408l-19.776-12.864c-7.488-4.928-10.24-4.928-19.136-0.32l-9.984 5.12c-8.96 4.672-9.28 6.272-1.728 11.136l19.776 12.928c-16.832 8.704-76.352 51.392-63.168 59.968 1.344 0.896 1.344 0.896 4.928 2.048l51.456 16.704c1.28 0.384 5.952 1.024 8 0.064 3.008-1.664 19.072-30.016 46.464-47.68l86.272 56.256c-18.56 23.488-60.288 63.04-2.24 100.992 64.768 42.24 147.904 20.8 171.712 9.6L672 701.824c7.488 4.928 10.304 4.992 19.264 0.384l10.112-5.184c8.768-4.544 8.96-6.272 1.472-11.072l-21.568-14.08c13.632-8.128 67.648-47.296 52.608-57.152a17.984 17.984 0 0 0-6.464-2.368l-45.312-11.584c-3.136-1.024-5.952-1.024-8 0-3.008 1.6-17.536 29.76-39.104 40.896l-81.408-53.12c18.304-25.92 54.208-66.56-2.24-103.36-61.184-39.872-135.68-25.088-173.504-11.328z m113.664 39.168c25.536 16.64 12.8 34.048 6.656 43.456l-76.096-49.728c17.92-5.184 45.248-9.472 69.44 6.272z m44.416 95.936l71.808 46.848c-12.16 3.712-42.304 12.032-68.224-4.928-23.872-15.488-10.176-33.344-3.584-41.92z m0 0"  horiz-adv-x="1024" />

    
    <glyph glyph-name="peizhi3" unicode="&#58968;" d="M682.51136 495.05792c-6.30784 23.76192-14.04928 46.26944-22.69696 67.6864-80.64512-17.82272-106.9312 52.20352-73.08288 101.16096-12.59008 18.91328-30.9504 32.40448-56.17152 39.06048-33.8432-51.83488-126.17728-25.73312-117.89824 45.01504H333.63968c6.656-75.79648-84.608-91.81696-123.48416-45.01504-19.0976-12.59008-45.20448-17.99168-50.76992-44.81024 37.0688-44.46208 3.2256-113.95584-73.088-95.4112-8.27904-21.42208-16.38912-43.92448-22.31808-67.6864 63.90272-10.08128 63.90272-108.00128 0-118.08256 5.93408-23.57248 14.04416-46.08512 22.31808-67.50208 80.64512 17.82272 107.648-52.20352 73.088-101.18656 12.7744-19.07712 30.9504-32.74752 56.51456-39.2192 33.8432 51.82976 126.00832 25.728 117.7344-45.19936h79.02208c-6.8352 76.14976 84.608 92.00128 123.66848 45.19936 19.08224 12.59008 45.3632 18.3552 50.40128 44.98944-36.72064 44.65152-2.88256 113.77152 73.08288 95.41632a584.0384 584.0384 0 0 1 22.69696 67.50208c-66.61632 16.38912-66.61632 101.88288 0.00512 118.08256z m-309.27872-176.22016c-64.7936 0-117.17632 52.55168-117.17632 117.18144 0 64.80896 52.38272 117.17632 117.17632 117.17632 64.44032 0 117.20192-52.36736 117.20192-117.17632 0-64.62976-52.7616-117.18144-117.20192-117.18144zM960.60928 200.01792c-2.16064 12.9536-4.50048 25.37984-7.9104 37.08416-43.74016-4.31616-53.82144 34.56512-32.22016 58.13248-6.1184 10.98752-14.76608 19.26656-27.71968 24.32-20.8896-25.22112-68.77184-6.1184-59.5968 31.1296-13.86496 1.81248-27.7248 3.24608-41.9328 4.86912-0.72192-40.33024-50.23232-43.39712-67.87584-15.85664-11.33568-5.74976-25.19552-7.18336-29.696-20.864 16.7424-25.93792-5.4016-60.49792-44.83072-46.08512-5.74976-10.8032-11.3408-22.15424-16.02048-34.21696 33.1264-9.35936 27.00288-61.56288-7.18848-62.8224a276.3776 276.3776 0 0 1 7.56224-36.89984c43.92448 4.31104 53.64224-34.56 32.75264-58.32704 5.4016-10.79808 14.04416-19.07712 26.81856-24.13056 21.42208 25.20064 68.58752 5.77024 59.76576-31.6672 14.22848-1.27488 28.27264-2.8928 41.76384-4.6848 1.2544 40.68352 50.7648 43.56096 68.40832 16.55296 10.98752 5.58592 25.0112 6.656 29.696 20.51584-16.55296 25.9328 5.4016 60.4928 44.6464 46.26432 5.58592 10.8032 11.17184 22.13888 16.01536 34.02752-34.00704 12.9792-28.96896 58.15808 7.56224 62.65856z m-174.96576-74.15808c-34.38592 3.96288-58.6752 35.0976-54.89664 69.47328 4.49536 34.02752 34.90816 58.69568 69.28896 54.54336 34.21184-3.95776 59.22304-34.72896 54.54336-69.28896-3.40992-34.20672-34.56-58.68544-68.93568-54.72768z"  horiz-adv-x="1024" />

    
    <glyph glyph-name="quanping1" unicode="&#59031;" d="M384.243 697.765H197.82v-186.613H65.964V829.75h318.279v-131.985M638.98 697.765h186.422v-186.613H957.26V829.75H638.98v-131.985M384.243-61.61H65.963V256.987h131.858v-186.613h186.422V-61.61M638.98-61.61h318.28V256.987H825.402v-186.613H638.981V-61.61"  horiz-adv-x="1024" />

    
    <glyph glyph-name="tubiao" unicode="&#59257;" d="M157.538462 29.538462h1024a78.769231 78.769231 0 0 0 0-157.538462H78.769231a78.769231 78.769231 0 0 0-78.769231 78.769231V817.230769a78.769231 78.769231 0 1 0 157.538462 0v-787.692307zM472.615385 187.076923a78.769231 78.769231 0 1 0-157.538462 0V502.153846a78.769231 78.769231 0 1 0 157.538462 0v-315.076923zM787.692308 187.076923a78.769231 78.769231 0 1 0-157.538462 0V817.230769a78.769231 78.769231 0 1 0 157.538462 0v-630.153846zM1102.769231 187.076923a78.769231 78.769231 0 0 0-157.538462 0V659.692308a78.769231 78.769231 0 0 0 157.538462 0v-472.615385z"  horiz-adv-x="1260" />

    
    <glyph glyph-name="shanchu" unicode="&#58916;" d="M731.918 715.466H293.285c-40.383 0-73.106-32.72-73.106-73.103v-24.368h584.844v24.368c0.001 40.383-32.72 73.103-73.105 73.103m-127.696 48.735l10.756-76.91H410.225l10.756 76.91h183.24m5.855 48.735H415.128c-20.108 0-38.813-16.277-41.621-36.218L359.252 674.75c-2.784-19.917 11.4-36.194 31.508-36.194h243.685c20.108 0 34.293 16.276 31.484 36.217l-14.255 101.969c-2.786 19.917-21.49 36.194-41.598 36.194m134.026-243.675H281.1c-26.795 0-46.761-21.845-44.334-48.544l39.933-438.996c2.403-26.7 26.344-48.544 53.14-48.544h365.527c26.795 0 50.736 21.845 53.14 48.544l39.932 438.996c2.426 26.699-17.54 48.544-44.336 48.544M415.128 130.647h-73.106L317.653 471.79h97.474v-341.144z m146.211 0h-97.474V471.79h97.474v-341.144z m121.842 0h-73.106V471.79h97.474l-24.368-341.144z"  horiz-adv-x="1024" />

    
    <glyph glyph-name="tianjia" unicode="&#58926;" d="M510.12507762-71.58469632000003c-250.93545643 0-454.35920043 203.46473813-454.35920043 454.43255751S259.18962119 837.26531584 510.12507762 837.26531584c250.93761365 0 454.36135765-203.44963527 454.36135765-454.41745465S761.06269127-71.58469632000003 510.12507762-71.58469632000003zM510.12507762 780.4652908099999c-219.57095083 0-397.56349099-178.01843029-397.56349099-397.61742962S290.55412565-14.771726790000002 510.12507762-14.771726790000002s397.56349099 178.02058752 397.56349099 397.61958798S729.69602845 780.4652908099999 510.12507762 780.4652908099999zM680.51004643 354.44137643L538.52508957 354.44137643l0-142.00653369c0-15.67685859-12.71452331-28.39569749-28.39785472-28.39569749-15.68333141 0-28.39569749 12.7188389-28.3956975 28.39569749l0 142.00653369-141.98927246 0c-15.68333141 0-28.39785472 12.71668053-28.39785472 28.40648476 0 15.67901582 12.71668053 28.39569749 28.39785472 28.3956975l141.98927246 0 0 142.0130065c0 15.67685859 12.71452331 28.38922467 28.3956975 28.38922468 15.68548864 0 28.39785472-12.71020771 28.39785472-28.38922468l0-142.0130065 141.984958 0c15.68548864 0 28.39785472-12.71668053 28.39785472-28.3956975C708.90790115 367.15805695999995 696.19553507 354.44137643 680.51004643 354.44137643z"  horiz-adv-x="1024" />

    
    <glyph glyph-name="ceshi4" unicode="&#58938;" d="M883.8656 46.336l110.08-110.08a36.5568 36.5568 0 1 0-50.7904-52.6336l-0.9216 0.9216-120.832 120.832a256.1024 256.1024 0 0 0-215.3472 464.5888 256.1024 256.1024 0 0 0 277.8112-423.6288zM720.384 566.8352a329.6256 329.6256 0 0 1-92.7744-11.3152 220.7744 220.7744 0 0 1-96.6144 44.6464V511.488a331.4176 331.4176 0 0 1-73.1648-66.816V600.2176c-124.0576-22.8352-219.4432-160-219.4432-325.8368s95.3856-303.0016 219.4432-325.8368v82.3808c20.8896-25.8048 45.568-48.3328 73.1648-66.816v-15.5648c6.0928 1.0752 12.1856 2.56 18.1248 4.1984a325.6832 325.6832 0 0 1 95.0784-36.7104c-44.9536-28.16-95.8464-44.032-149.8112-44.032-114.7904 0-215.8592 71.7824-274.7392 180.6848a73.1136 73.1136 0 0 1-90.9824-70.9632 36.5568 36.5568 0 1 0-73.1136 0 146.3296 146.3296 0 0 0 132.4032 145.664 474.2144 474.2144 0 0 0-21.3504 110.3872h-111.104a36.5568 36.5568 0 1 0 0 73.1136h111.104a478.1056 478.1056 0 0 0 21.2992 110.3872 146.3296 146.3296 0 0 0-132.4032 145.664 36.5568 36.5568 0 1 0 73.1136 0 73.1136 73.1136 0 0 1 90.9824-70.9632 387.4816 387.4816 0 0 0 72.448 95.6928 219.4944 219.4944 0 1 0 404.7872 0c8.1408-7.8336 16.0256-16.128 23.552-24.832z m132.9152-30.8224c4.4032 9.3696 6.8608 19.8656 6.8608 30.9248a36.5568 36.5568 0 1 0 73.1136 0c0-25.0368-6.2976-48.64-17.408-69.2736a325.9904 325.9904 0 0 1-62.5664 38.3488zM353.28 637.9008a279.1936 279.1936 0 0 0 141.1072 38.7584c50.4832 0 98.3552-13.8752 141.1072-38.7584a146.432 146.432 0 0 1-141.1072 185.0368A146.3296 146.3296 0 0 1 353.28 637.9008z m360.5504-583.0144a182.8864 182.8864 0 1 1 0 365.7216 182.8864 182.8864 0 0 1 0-365.7216z"  horiz-adv-x="1024" />

    
    <glyph glyph-name="qingchu3" unicode="&#59095;" d="M809.028267 888.558933a23.483733 23.483733 0 0 1-34.2016 0L7.031467 82.670933a26.4192 26.4192 0 0 1 0-35.976533l149.367466-156.740267c9.4208-9.898667 27.989333-17.954133 41.301334-17.954133h478.344533a65.7408 65.7408 0 0 1 41.3696 17.954133l504.354133 529.476267a26.4192 26.4192 0 0 1 0 35.908267L808.96 888.558933zM669.9008-14.404267a65.7408 65.7408 0 0 0-41.301333-17.954133H258.2528a65.7408 65.7408 0 0 0-41.3696 17.954133l-70.314667 73.864534a26.4192 26.4192 0 0 0 0 35.976533L427.895467 390.826667a23.483733 23.483733 0 0 0 34.2016 0l279.825066-293.751467a26.4192 26.4192 0 0 0 0-35.908267l-72.0896-75.639466z"  horiz-adv-x="1228" />

    
    <glyph glyph-name="xinxiaoxi3" unicode="&#58914;" d="M663.866667 470c-34 0-61.466667-27.466667-61.466667-61.466667s27.466667-61.466667 61.466667-61.466666 61.466667 27.466667 61.466666 61.466666-27.466667 61.466667-61.466666 61.466667z m0 0M1070.666667 470c-34 0-61.466667-27.466667-61.466667-61.466667s27.466667-61.466667 61.466667-61.466666 61.466667 27.466667 61.466666 61.466666-27.466667 61.466667-61.466666 61.466667z m0 0M867.333333 470c-34 0-61.466667-27.466667-61.466666-61.466667s27.466667-61.466667 61.466666-61.466666 61.466667 27.466667 61.466667 61.466666c-0.133333 34-27.6 61.466667-61.466667 61.466667z m0 0M1413.466667 690c0 77.733333-62.933333 140.666667-140.666667 140.666667-62 0-114.666667-40.133333-133.333333-95.866667H528.266667c-32.8 0-63.733333-12.8-86.933334-36-23.2-23.2-36-54.133333-36-86.933333v-406.8c0-32.8 12.8-63.733333 36-86.933334 23.2-23.2 54.133333-36 86.933334-36h148v-96.933333c0-28.4 23.333333-48 48.133333-48 10 0 20.4 3.2 29.466667 10.4l11.6 9.2 159.466666 125.466667 281.466667-0.133334c32.8 0 63.733333 12.8 86.933333 36 23.2 23.2 36 54.133333 36 86.933334V561.2c49.466667 21.733333 84.133333 71.2 84.133334 128.8z m-132.266667-484.933333c0-20-7.733333-38.8-21.866667-52.933334-14.133333-14.133333-32.933333-21.866667-52.933333-21.866666l-281.466667 0.133333h-16.666666l-13.066667-10.266667L735.866667-5.333333l-11.333334-8.933334V130.266667H528.266667c-20 0-38.8 7.733333-52.933334 21.866666-14.133333 14.133333-21.866667 32.933333-21.866666 52.933334V611.866667c0 20 7.733333 38.8 21.866666 52.933333 14.133333 14.133333 32.933333 21.866667 52.933334 21.866667h604c1.733333-76.133333 64-137.333333 140.533333-137.333334 2.8 0 5.6 0.133333 8.4 0.266667v-344.533333z m0 0M1272.8 690m-141.333333 0a141.333333 141.333333 0 1 1 282.666666 0 141.333333 141.333333 0 1 1-282.666666 0Z"  horiz-adv-x="1821" />

    
    <glyph glyph-name="gaowei1" unicode="&#58960;" d="M512 896C230.4 896 0 665.6 0 384s230.4-512 512-512 512 230.4 512 512-230.4 512-512 512z m0-836.266667c-17.066667 0-34.133333 17.066667-34.133333 34.133334S494.933333 128 512 128s34.133333-17.066667 34.133333-34.133333-17.066667-34.133333-34.133333-34.133334z m34.133333 162.133334c0-17.066667-17.066667-34.133333-34.133333-34.133334s-34.133333 17.066667-34.133333 34.133334V674.133333c0 17.066667 17.066667 34.133333 34.133333 34.133334s34.133333-17.066667 34.133333-34.133334v-452.266666z"  horiz-adv-x="1024" />

    
    <glyph glyph-name="loudong2" unicode="&#58893;" d="M514.133049 231.168a151.808 151.808 0 1 0 151.608889 151.808 151.921778 151.921778 0 0 0-151.608889-151.808z m0 274.972444a123.164444 123.164444 0 1 1 123.164444-123.192888 123.249778 123.249778 0 0 1-123.164444 123.221333z m0-495.530666a372.337778 372.337778 0 1 0 372.337778 372.337778 372.622222 372.622222 0 0 0-372.337778-372.309334z m0 687.445333a315.079111 315.079111 0 1 1 315.164444-315.107555A315.477333 315.477333 0 0 1 514.133049 698.083556zM995.413049 199.68a28.643556 28.643556 0 0 0-28.728889 28.615111A470.357333 470.357333 0 0 1 496.781938 698.083556a28.615111 28.615111 0 0 0 0 57.258666 527.587556 527.587556 0 0 0 527.075555-527.018666 28.444444 28.444444 0 0 0-28.444444-28.643556zM356.266382-127.573333a28.615111 28.615111 0 1 0 0 57.230222 470.300444 470.300444 0 0 1 469.617778 469.788444 28.586667 28.586667 0 1 0 57.173333 0A527.530667 527.530667 0 0 0 356.266382-127.573333z m170.951111 140.629333A527.786667 527.786667 0 0 0 0.141938 540.103111a28.728889 28.728889 0 0 0 57.457778 0 470.300444 470.300444 0 0 1 469.617777-469.788444 28.643556 28.643556 0 1 0 0-57.258667zM169.670827 340.394667a28.643556 28.643556 0 0 0-28.728889 28.615111A527.587556 527.587556 0 0 0 668.017493 896a28.615111 28.615111 0 1 0 0-57.258667A470.357333 470.357333 0 0 1 198.115271 368.952889a28.444444 28.444444 0 0 0-28.444444-28.558222z"  horiz-adv-x="1024" />

    
    <glyph glyph-name="tubiao1" unicode="&#58882;" d="M849.5 18.375L737 18.375C705.9359375 18.375 680.75 43.56093750000002 680.75 74.625L680.75 468.375C680.75 499.4390625 705.9359375 524.625 737 524.625L849.5 524.625C880.5640625 524.625 905.75 499.4390625 905.75 468.375L905.75 74.625C905.75 43.56093750000002 880.5640625 18.375 849.5 18.375ZM849.5 468.375L737 468.375 737 74.625 849.5 74.625 849.5 468.375ZM568.25 18.375L455.75 18.375C424.6859375 18.375 399.5 43.56093750000002 399.5 74.625L399.5 693.375C399.5 724.4390625 424.6859375 749.625 455.75 749.625L568.25 749.625C599.3140625 749.625 624.5 724.4390625 624.5 693.375L624.5 74.625C624.5 43.56093750000002 599.3140625 18.375 568.25 18.375ZM568.25 693.375L455.75 693.375 455.75 74.625 568.25 74.625 568.25 693.375ZM287 18.375L174.5 18.375C143.4359375 18.375 118.25 43.56093750000002 118.25 74.625L118.25 355.875C118.25 386.9390625 143.4359375 412.125 174.5 412.125L287 412.125C318.0640625 412.125 343.25 386.9390625 343.25 355.875L343.25 74.625C343.25 43.56093750000002 318.0640625 18.375 287 18.375ZM287 355.875L174.5 355.875 174.5 74.625 287 74.625 287 355.875Z"  horiz-adv-x="1024" />

    
    <glyph glyph-name="jihuarenwu2" unicode="&#58946;" d="M511.437588-54.659874c-241.449605 0-437.892718 196.494256-437.892718 437.943862s196.391969 437.943862 437.892718 437.943861c241.449605 0 437.943862-196.494256 437.943861-437.943861 0-241.398462-196.494256-437.943862-437.943861-437.943862m0 949.227849C229.533282 894.567975 0.1536 665.239437 0.1536 383.283988s229.379682-511.283988 511.283988-511.283988c281.955449 0 511.283988 229.328539 511.283987 511.283988S793.393037 894.567975 511.437588 894.567975M694.020746 383.283988h-182.583158V638.849266a36.516632 36.516632 0 1 1-73.033264 0v-292.08191c0-20.252922 16.314854-36.516632 36.516632-36.516632h219.09979a36.516632 36.516632 0 1 1 0 73.033264"  horiz-adv-x="1024" />

    
    <glyph glyph-name="lipin1" unicode="&#58932;" d="M806-26.3H218c-34.7 0-63 28.3-63 63V397.2c0 11.6 9.4 21 21 21s21-9.4 21-21v-360.5c0-11.6 9.4-21 21-21h588c11.6 0 21 9.4 21 21V397.2c0 11.6 9.4 21 21 21s21-9.4 21-21v-360.5c0-34.7-28.3-63-63-63zM869 397.2H155c-34.7 0-63 28.3-63 63v59.5c0 34.7 28.3 63 63 63h714c34.7 0 63-28.3 63-63v-59.5c0-34.7-28.3-63-63-63zM155 540.7c-11.6 0-21-9.4-21-21v-59.5c0-11.6 9.4-21 21-21h714c11.6 0 21 9.4 21 21v59.5c0 11.6-9.4 21-21 21H155zM617 542.3l-126 0.1V668.3c0 69.5 56.5 126 126 126s126-56.5 126-126-56.5-126-126-126z m-84 42.1l84-0.1c46.3 0 84 37.7 84 84s-37.7 84-84 84-84-37.7-84-84v-83.9zM407 542.3c-69.5 0-126 56.5-126 126s56.5 126 126 126 126-56.5 126-126v-125.9l-126-0.1z m0 210c-46.3 0-84-37.7-84-84s37.7-84 84-84l84 0.1v83.9c0 46.3-37.7 84-84 84zM512-5.3c-11.6 0-21 9.4-21 21V563.4c0 11.6 9.4 21 21 21s21-9.4 21-21v-547.6c0-11.7-9.4-21.1-21-21.1z"  horiz-adv-x="1024" />

    
    <glyph glyph-name="fullscreen-reset" unicode="&#59075;" d="M885.275 758.175v-747.45H137.825V757.95h747.45m0 74.7H137.825A74.925 74.925 0 0 1 62 758.175V10.5a74.925 74.925 0 0 1 74.7-74.7h748.575a74.925 74.925 0 0 1 74.7 74.7V758.175A74.925 74.925 0 0 1 885.275 832.875z m0 0M175.175 384.225h336.375v-74.7H175.175zM436.85 384.225h74.7v-336.375h-74.7zM447.65 373.42499999999995L174.5 100.72500000000002l52.875-52.875 273.15 272.7z m418.95 104.4h-337.5v-74.7h337.5z m0 0M530.225 739.275h74.7v-336.375h-74.7zM813.725 739.275L541.25 466.8l52.875-52.875L866.6 686.625z m0 0"  horiz-adv-x="1024" />

    
    <glyph glyph-name="gaowei2" unicode="&#59072;" d="M653.369738 852.441362l490.107765-848.88185a87.117276 87.117276 0 0 0-75.423682-130.968255h-980.288615a87.117276 87.117276 0 0 0-75.423682 130.968255l490.18085 848.88185a87.117276 87.117276 0 0 0 150.847364 0z m-135.061012-240.376445l23.021763-425.792997h78.273996l22.875594 425.719912h-124.244438z m61.610624-484.334052a68.115186 68.115186 0 0 1-50.64788-19.87911 63.364663 63.364663 0 0 1-21.925489-50.64788 66.214977 66.214977 0 0 1 21.925489-50.64788 68.91912 68.91912 0 0 1 50.64788-20.829214 78.858676 78.858676 0 0 1 52.621174 19.87911 69.576885 69.576885 0 0 1 20.829214 51.671069 65.776467 65.776467 0 0 1-20.829214 50.64788 71.111669 71.111669 0 0 1-52.621174 19.87911z"  horiz-adv-x="1156" />

    
    <glyph glyph-name="diwei" unicode="&#59073;" d="M653.369738 852.441362l490.107765-848.88185a87.117276 87.117276 0 0 0-75.423682-130.968255h-980.288615a87.117276 87.117276 0 0 0-75.423682 130.968255l490.18085 848.88185a87.117276 87.117276 0 0 0 150.847364 0z m-135.061012-240.376445l23.021763-425.792997h78.273996l22.875594 425.719912h-124.244438z m61.610624-484.334052a68.115186 68.115186 0 0 1-50.64788-19.87911 63.364663 63.364663 0 0 1-21.925489-50.64788 66.214977 66.214977 0 0 1 21.925489-50.64788 68.91912 68.91912 0 0 1 50.64788-20.829214 78.858676 78.858676 0 0 1 52.621174 19.87911 69.576885 69.576885 0 0 1 20.829214 51.671069 65.776467 65.776467 0 0 1-20.829214 50.64788 71.111669 71.111669 0 0 1-52.621174 19.87911z"  horiz-adv-x="1156" />

    
    </font>
</defs>
</svg>
