<svg width="323.063" height="323" xmlns="http://www.w3.org/2000/svg">

 <g>
  <title>background</title>
  <rect fill="none" id="canvas_background" height="325" width="325.063" y="-1" x="-1"/>
 </g>
 <g>
  <title>Layer 1</title>
  <path stroke="null" id="svg_1" d="m-3,249.559292c-45.543,-20.11776 17.717,2.286942 24.63,3.000384c-0.574,4.994095 0.96,12.430912 0.389,17.43417c10.599,1.455684 39.344,3.175799 42.363,-25.262398c5.99,-1.421648 11.686,-4.613156 17.584,-5.971969c1.33,-12.694034 -5.355,-41.210776 -7.507,-54.25695c-2.495,-15.109265 -11.556,-33.805377 -2.566,-39.031178c14.63,-8.507634 21.215,53.255513 34.441,60.29699c2.422,8.10575 1.748,9.967245 7.729,10.358657c-0.04,2.989912 0.19,6.587231 0.358,9.616415c6.25,-0.629662 12.903,0.670243 18.934,3.381323c0.874,22.05649 26.472,31.956973 35.108,35.465276c14.737,5.990296 24.03,-3.1614 37.833,-7.799428c-10.036,-4.27018 -22.997,-14.678582 -9.725,-33.255569c-14.236,-11.175515 1.863,-44.221633 -15.36,-42.022398c0.583,-15.488895 -0.779,-26.944551 -6.777,-36.114574c1.315,-2.137708 2.688,-7.794192 3.847,-9.766958c-10.596,-7.665903 -7.943,-12.0539 -8.819,-26.605502c-0.871,-14.482222 4.101,-29.944935 -10.107,-29.08095c8.232,-22.953202 6.352,-34.54631 18.776,-4.700864c6.091,14.636692 6.806,30.023479 11.865,46.216653c9.777,31.257931 27.006,61.797183 43.555,71.437161c-2.682,9.831102 -38.461,44.372176 -6.541,38.841363c1.638,15.191736 7.06,11.136243 12.771,15.787363c1.713,1.402012 6.789,0.034036 8.052,1.847095c2.964,4.261017 1.875,14.678582 4.014,18.455244c9.2,16.256009 19.813,9.997354 29.175,20.302339c-4.995,-11.522418 -13.97,-41.108669 -21.595,-44.42192c7.815,-10.558944 19.859,2.82366 23.228,-4.114401c4.678,-1.197797 9.766,1.832695 13.699,4.373597c-3,-13.031774 -14.489,-9.010316 -20.338,-18.410735c-6.962,-11.180752 -3.951,-29.05346 -10.048,-36.305698c-0.663,-7.41718 -0.68,-17.727402 -0.029,-25.181236c19.381,-8.707922 39.684,89.699971 57.126,106.572551c-17.742,-16.452369 -22.997,-49.883353 -32.929,-80.940996c-4.061,-12.695343 -7.995,-30.065369 -13.769,-39.747238c-10.486,-17.571622 -10.515,-5.677429 -19.294,9.163477c-14.247,24.094709 -30.444,34.267478 -43.036,0.068072c-10.653,-28.943498 -21.336,-51.149222 -30.138,-82.040613c-2.688,-9.4554 -11.594,-42.319557 -18.291,-43.136415c-5.124,-0.620498 -13.392,26.983823 -17.006,35.33306c-11.426,26.399978 -21.642,55.491401 -34.314,79.363569c-9.108,17.160575 -12.096,20.726477 -20.572,9.774812c-6.426,-8.299492 -13.2,-22.838004 -20.857,-30.592924c-13.018,-13.184935 -9.191,-1.471393 -18.683,20.887492c-5.961,14.041066 -13.304,25.183854 -20.834,35.083028c-11.591,15.234936 -29.818,29.738102 -32.059,60.502514" fill="#0C372C"/>
 </g>
</svg>