<svg width="1024" height="1024" xmlns="http://www.w3.org/2000/svg" class="icon">
 <defs>
  <style type="text/css"/>
 </defs>
 <g>
  <title>background</title>
  <rect fill="none" id="canvas_background" height="402" width="582" y="-1" x="-1"/>
 </g>
 <g>
  <title>Layer 1</title>
  <path id="svg_1" fill="#fff" d="m29.66667,947.66667c-14.93334,0 -29.86667,-8.53334 -36.26667,-21.33334c-8.53333,-12.8 -8.53333,-29.86666 0,-42.66666l469.33333,-812.8c8.53334,-12.8 21.33334,-21.33334 36.26667,-21.33334s29.86667,8.53334 36.26667,21.33334l469.33333,812.8c8.53333,12.8 8.53333,29.86666 0,42.66666c-8.53333,12.8 -21.33333,21.33334 -36.26667,21.33334l-938.66666,0zm147.28934,-254.13354l-70.40048,167.38606c244.69774,51.71691 579.09175,-157.17001 787.4263,-0.40403l-126.45361,-215.64849c-77.92259,-67.31798 -161.86155,132.13333 -268.52822,132.13333c-106.66667,0 -280.04374,-102.39908 -322.04399,-83.46687zm258.04399,-185.33313c-55.46667,12.8 -104.53333,44.8 -138.66667,87.46667c46.93334,59.73333 123.73334,96 202.66667,96s155.73333,-36.26667 202.66667,-96c-34.13334,-42.66667 -83.2,-74.66667 -138.66667,-87.46667c12.8,14.93333 21.33333,34.13333 21.33333,55.46667c0,46.93333 -38.4,85.33333 -85.33333,85.33333s-85.33333,-38.4 -85.33333,-85.33333c0,-21.33334 8.53333,-40.53334 21.33333,-55.46667zm48.00018,-352.66642l-137.8669,293.1998c17.06703,-5.46687 66.40041,-30.4001 153.86672,-34.40005c87.46631,-3.99995 194.85643,6.56916 241.78977,32.16916l-241.78977,-266.96918z"/>
 </g>
</svg>
