<svg height="512pt" viewBox="-18 0 512 512.00069" width="512pt" xmlns="http://www.w3.org/2000/svg"><path d="M502.0347050743512,337.55938613414764 C478.66539368786135,298.4694685755539 430.4229513750962,196.87683636852265 343.7811649727754,173.43686941539764 C307.19122165903366,163.53818138805389 268.3415397422723,168.8855643958664 228.18909997209826,189.3159296693039 C233.17095832552235,180.62497338024139 239.3269168751649,172.8232957630539 246.69315704874316,165.87207562633515 C299.1937056393556,116.3048503724289 399.04003532838146,124.07933824352264 451.33149335250175,124.07933824352264 C459.8557450817517,124.07933824352264 466.7676226946286,117.40384300914765 466.7676226946286,109.16722886852264 C466.7676226946286,100.93450181774139 459.8557450817517,94.2590065833664 451.33149335250175,94.2590065833664 C404.57275720547955,94.2590065833664 289.431019738572,83.8205300208664 225.10910833052912,144.54853464977265 C197.9280037599019,170.2136766224289 183.29604910921373,205.3969297083664 181.54696786865512,249.2245536536789 C176.22332626461306,240.69280898571014 172.29493933033265,231.6251628724289 169.73765866483967,221.9711229114914 C150.1841549025468,148.1833613099289 216.42402166299144,62.326116153678896 237.46525632452287,25.049729806022643 C241.54643902353564,17.818907618522644 238.78811725854197,8.762912833366393 231.30125860132495,4.821294376335144 C223.81840409073155,0.8796858607101439 214.4417323352746,3.5475517005538943 210.36054963626185,10.774486798210143 C190.19586281503956,46.497538360710145 116.6259476021699,141.8068836927414 139.82638487681666,229.36115672008515 C149.24728752698223,264.9133353919601 173.4770684066705,294.7375541419601 211.9045650438241,318.12316148571017 C201.62720734051982,318.3017986146164 191.5629649372033,317.0474715052414 181.65553273867883,314.3679443958664 C110.93239078678408,295.2346244544601 67.8929613009862,207.6842285755539 41.80954875077525,164.0507801771164 C37.543403299372585,156.9209229114914 28.10641200866023,154.47441242321014 20.720068754475506,158.5946580677414 C13.337750233786494,162.7110166224289 10.808611822455319,171.8291551380539 15.07074283379832,178.95900246227265 C45.339878219550044,229.59416339977264 89.87105304464617,320.5036610364914 173.32829737543383,343.0815291224289 C185.23008280872622,346.3008348255539 197.36910106267254,347.90854910289767 209.71318514961519,347.90854910289767 C235.3301712320737,347.90854910289767 261.8357690618924,340.9650932044601 288.9324365765981,327.1752791224289 C283.950567929738,335.8778867396164 277.78657020654,343.68732859508515 270.41229085940637,350.6502000599289 C217.91576700228967,400.2174253138351 118.0654125797681,392.44293744274137 65.77395455564776,392.44293744274137 C57.24970282639781,392.44293744274137 50.337825213520915,399.11844261852264 50.337825213520915,407.3511696693039 C50.337825213520915,415.5877738685226 57.24970282639781,422.2632790443039 65.77395455564776,422.2632790443039 C112.77394825681964,422.2632790443039 227.70659515723506,432.6745658607101 291.99633957762046,371.9737410364914 C319.1774441482477,346.3085990638351 333.80939879893583,311.12534597789767 335.5584800394944,267.29772203258517 C340.8821216435365,275.8255796107101 344.8105085778169,284.89323566539764 347.36778924330986,294.5511527747726 C366.60364786252296,367.1428339661789 302.88084531292236,451.24869164196014 280.58108369268695,489.82212332164767 C276.42751755136766,497.0102272864914 279.0933527934484,506.0934018763351 286.53599084939276,510.10491836071014 C293.9625505582265,514.1125477552414 303.3754140348367,511.56117531383507 307.53701934971133,504.3575428724289 C329.49902245282453,466.37438218883517 400.12164900168693,373.3639870521164 377.27906303133284,287.1611189661789 C367.862174821227,251.6089402943039 343.62837950147906,221.7847215443039 305.2008828643254,198.3991142005539 C315.47824056762977,198.22047707164765 325.5384685308866,199.47480418102265 335.4499151694707,202.15433129039764 C406.17305712136545,221.2876512318039 449.2124866071633,308.83804711071014 475.29589915737427,352.47149550914764 C479.574108515828,359.6246454896164 489.0231637135915,362.0323347864914 496.3853791536741,357.9276176185226 C503.76769767436303,353.81125906383517 506.2968360856942,344.6931205482101 502.0347050743512,337.55938613414764 zM218.4465171519212,280.62153269664765 C205.87727444481172,259.5970192786789 212.86957467355052,232.0872792005539 235.39851964744847,219.5246024818039 C257.6540606664113,207.11726023571015 285.97307371210377,214.67428978649139 298.65893075622836,235.89685589977265 C311.4292248562745,257.25535086071017 303.8217271285466,284.6641160755539 281.7069282607011,296.9937861146164 C259.4835542293958,309.38559988414767 231.20073290485658,301.95672500133514 218.4465171519212,280.62153269664765 zM218.4465171519212,280.62153269664765 " id="svg_1" fill="black" fill-opacity="0.5" stroke="none" stroke-opacity="0.5"></path></svg>
