<svg width="283.465" height="283.464" xmlns="http://www.w3.org/2000/svg">

 <g>
  <title>background</title>
  <rect fill="none" id="canvas_background" height="402" width="582" y="-1" x="-1"/>
 </g>
 <g>
  <title>Layer 1</title>
  <g id="_x31_11">
   <circle id="svg_1" r="142.366" cy="141.732" cx="141.099" stroke-miterlimit="10" stroke-width="0.75" stroke="#FFFFFF" fill="#FFFFFF"/>
   <path id="svg_2" d="m21.556,203.006c11.931,11.075 19.303,-11.097 16.382,16.213c9.159,1.342 20.348,0.703 26.754,-7.23c10.847,-13.434 19.412,-15.963 16.637,-34.982c-1.406,-9.641 -15.343,-50.965 -6.286,-56.579c7.058,-4.376 23.724,47.256 27.505,54.242c7.88,14.557 47.803,42.92 72.487,34.075c-13.947,-6.329 -16.869,-60.479 -19.348,-75.929c-2.502,-15.594 -7.15,-25.251 -8.056,-41.303c-0.206,-3.648 -4.765,-45.536 0.081,-40.404c20.885,22.116 16.667,67.975 35.344,94.363c12.687,5.022 15.588,11.424 8.704,19.203c-2.057,3.16 -15.296,18.504 -10.119,23.424c19.916,18.925 42.094,-2.133 60.395,10.474c-4.986,-23.103 -25.22,-31.771 -22.628,-63.388c13.515,-6.475 34.005,75.787 42.501,84.55c-15.867,-15.69 -21.269,-99.506 -40.479,-102.677c-11.79,-1.946 -23.798,63.017 -40.635,14.252c-3.604,-10.441 -24.331,-97.791 -36.03,-99.311c-6.511,-0.84 -27.76,67.204 -29.261,70.909c-29.725,73.336 -19.092,-10.976 -46.082,-0.725c-10.352,3.932 -46.923,88.848 -47.866,100.823z" stroke-miterlimit="10" stroke-width="0.75" stroke="#006934" fill="#416A47"/>
   <path id="svg_3" d="m-1.947,220.054c-2.76,-11.393 52.722,-121.821 58.287,-121.821c16.727,0 17.701,40.009 32.4,40.005c25.136,0 36.46,-126.072 56.729,-123.393c13.768,1.789 40.145,108.566 43.69,118.837c18.907,54.76 30.779,-17.66 47.089,-17.66c11.409,0 44.076,115.295 47.782,123.915c-8.192,-8.101 -35.406,-105.153 -48.921,-100.626c-2.352,31.183 7.72,56.293 27.487,76.989c-18.378,-6.333 -15.877,-0.494 -36.768,1.743c-19.486,2.086 -21.002,-13.981 -31.417,-13.981c-17.14,0 1.052,-23.466 3.213,-26.685c11.634,-17.328 -4.809,-19.984 -14.178,-36.495c-6.715,-11.833 -25.994,-100.937 -35.854,-102.025c-16.556,5.18 29.738,177.605 36.43,187.4c-26.25,5.468 -70.011,-11.147 -84.938,-28.312c-7.66,-8.808 -28.069,-81.064 -36.178,-76.036c-9.984,6.189 10.42,76.794 9.386,87.315l-74.239,10.83zm21.245,17.698c30.155,3.962 26.575,-22.707 51.061,-29.415c0.497,-6.864 -3.474,-42.869 -4.302,-66.605c-0.829,-23.752 1.488,-35.22 14.575,7.089c12.295,39.751 51.008,84.353 97.847,76.995c-14.092,-7.823 -40.749,-188.96 -30.885,-188.96c9.843,0 31.077,91.665 37.756,103.381c-8.192,-14.368 24.512,37.376 21.289,25.131c2.594,9.854 -23.196,23.632 -17.225,34.835c14.166,26.56 49.685,-1.177 69.95,11.503c-6.81,-17.785 -23.737,-24.331 -26.175,-49.232c-3.02,-36.008 9.292,-29.304 20.79,-1.565c-2.79,-9.697 -6.641,-42.886 -17.731,-42.886c-15.747,0 -29.01,74.15 -48.979,16.312c-3.186,-9.23 -30.477,-116.002 -42.056,-117.506c-9.723,-0.005 -40.212,99.301 -44.408,107.731c-21.284,42.764 -23.134,-24.327 -44.465,-24.327c-2.135,0 -56.302,103.653 -55.496,114.406c1.236,16.504 20.092,-5.769 18.454,23.113c2.523,0.331 0.128,-2.255 0,0z" fill="#006934" opacity="0.8"/>
   <path id="svg_4" d="m63.232,133.735" fill="#006934"/>
  </g>
 </g>
</svg>